<svg width="320" height="966" viewBox="0 0 320 966" fill="none" xmlns="http://www.w3.org/2000/svg">
<path d="M-64.1257 16.7799C-65.6219 16.7799 -66.9336 16.4213 -68.0609 15.7042C-69.1882 14.9871 -70.0491 14.0037 -70.6435 12.7539C-71.2379 11.4837 -71.5351 10.0495 -71.5351 8.4514C-71.5351 6.83283 -71.2379 5.38841 -70.6435 4.11814C-70.0491 2.82738 -69.1882 1.82345 -68.0609 1.10636C-66.9336 0.368788 -65.6116 0 -64.0949 0C-63.0291 0 -62.0965 0.112685 -61.2971 0.338057C-60.4978 0.563427 -59.7394 0.973191 -59.0221 1.56735V4.1796H-59.1451C-59.8829 3.56495 -60.6515 3.12446 -61.4509 2.85811C-62.2297 2.59176 -63.1214 2.45859 -64.1257 2.45859C-65.5809 2.45859 -66.7082 3.02202 -67.5075 4.14887C-68.2864 5.27572 -68.6758 6.72014 -68.6758 8.48213C-68.6758 10.1827 -68.2864 11.5861 -67.5075 12.6925C-66.7082 13.7783 -65.5911 14.3213 -64.1564 14.3213C-63.0906 14.3213 -62.1375 14.1574 -61.2971 13.8296C-60.4568 13.4813 -59.6267 12.9383 -58.8068 12.2007H-58.6839V14.813C-59.4422 15.5301 -60.2621 16.0423 -61.1434 16.3496C-62.0043 16.6365 -62.9984 16.7799 -64.1257 16.7799Z" fill="black"/>
<path d="M-1.02762 41.3453L-6.9613 57.3876H-10.6506L-16.5844 41.3453H-13.8173L-8.74448 55.2056L-3.67163 41.3453H-1.02762Z" fill="black"/>
<path d="M254.218 57.7563C252.722 57.7563 251.41 57.3978 250.283 56.6807C249.155 55.9636 248.295 54.9802 247.7 53.7304C247.106 52.4601 246.809 51.026 246.809 49.4279C246.809 47.8093 247.106 46.3649 247.7 45.0946C248.295 43.8039 249.155 42.7999 250.283 42.0828C251.41 41.3453 252.732 40.9765 254.249 40.9765C255.315 40.9765 256.247 41.0892 257.047 41.3145C257.846 41.5399 258.604 41.9497 259.322 42.5438V45.1561H259.199C258.461 44.5414 257.692 44.1009 256.893 43.8346C256.114 43.5682 255.222 43.4351 254.218 43.4351C252.763 43.4351 251.635 43.9985 250.836 45.1253C250.057 46.2522 249.668 47.6966 249.668 49.4586C249.668 51.1591 250.057 52.5626 250.836 53.6689C251.635 54.7548 252.753 55.2978 254.187 55.2978C255.253 55.2978 256.206 55.1338 257.047 54.806C257.887 54.4577 258.717 53.9148 259.537 53.1772H259.66V55.7895C258.901 56.5066 258.082 57.0188 257.2 57.3261C256.339 57.6129 255.345 57.7563 254.218 57.7563Z" fill="black"/>
<path d="M270.821 57.7563C269.325 57.7563 268.013 57.3978 266.886 56.6807C265.759 55.9636 264.898 54.9802 264.303 53.7304C263.709 52.4601 263.412 51.026 263.412 49.4279C263.412 47.8093 263.709 46.3649 264.303 45.0946C264.898 43.8039 265.759 42.7999 266.886 42.0828C268.013 41.3453 269.335 40.9765 270.852 40.9765C271.918 40.9765 272.85 41.0892 273.65 41.3145C274.449 41.5399 275.207 41.9497 275.925 42.5438V45.1561H275.802C275.064 44.5414 274.295 44.1009 273.496 43.8346C272.717 43.5682 271.826 43.4351 270.821 43.4351C269.366 43.4351 268.239 43.9985 267.439 45.1253C266.661 46.2522 266.271 47.6966 266.271 49.4586C266.271 51.1591 266.661 52.5626 267.439 53.6689C268.239 54.7548 269.356 55.2978 270.79 55.2978C271.856 55.2978 272.809 55.1338 273.65 54.806C274.49 54.4577 275.32 53.9148 276.14 53.1772H276.263V55.7895C275.505 56.5066 274.685 57.0188 273.803 57.3261C272.943 57.6129 271.949 57.7563 270.821 57.7563Z" fill="black"/>
<path d="M-167.848 82.291L-168.524 85.856V105.494H-171.229V96.5508C-172.664 97.985 -174.437 98.7021 -176.548 98.7021C-178.536 98.7021 -180.063 97.9338 -181.129 96.3972C-182.195 94.8605 -182.728 92.8937 -182.728 90.4965C-182.728 88.8575 -182.441 87.3926 -181.867 86.1018C-181.273 84.8111 -180.432 83.7969 -179.346 83.0593C-178.239 82.3217 -176.927 81.953 -175.411 81.953C-174.591 81.953 -173.832 82.0554 -173.136 82.2603C-172.418 82.4652 -171.639 82.7725 -170.799 83.1822L-170.553 82.291H-167.848ZM-176.118 96.2128C-175.134 96.2128 -174.263 96.0181 -173.504 95.6289C-172.726 95.2191 -171.967 94.6249 -171.229 93.8464V85.0262C-172.541 84.5755 -173.843 84.3501 -175.134 84.3501C-176.63 84.3501 -177.788 84.9237 -178.608 86.0711C-179.407 87.1979 -179.807 88.6526 -179.807 90.4351C-179.807 92.1356 -179.52 93.5288 -178.946 94.6147C-178.352 95.6801 -177.409 96.2128 -176.118 96.2128Z" fill="black"/>
<path d="M132.505 94.6761C132.505 95.9054 132.32 97.1757 131.951 98.487C131.582 99.7982 130.926 101.294 129.984 102.974H127.278C127.954 101.868 128.446 100.823 128.754 99.8392C129.061 98.8762 129.246 98.026 129.307 97.2884C129.389 96.5508 129.43 95.6801 129.43 94.6761H132.505Z" fill="black"/>
<path d="M-179.684 135.653C-179.684 136.882 -179.869 138.152 -180.238 139.463C-180.606 140.775 -181.262 142.27 -182.205 143.95H-184.911C-184.234 142.844 -183.742 141.799 -183.435 140.816C-183.128 139.853 -182.943 139.002 -182.882 138.265C-182.8 137.527 -182.759 136.657 -182.759 135.653H-179.684Z" fill="black"/>
<path d="M-103.927 123.267L-104.603 126.832V146.47H-107.308V137.527C-108.743 138.961 -110.516 139.679 -112.627 139.679C-114.615 139.679 -116.142 138.91 -117.208 137.374C-118.274 135.837 -118.807 133.87 -118.807 131.473C-118.807 129.834 -118.52 128.369 -117.946 127.078C-117.352 125.788 -116.511 124.773 -115.425 124.036C-114.318 123.298 -113.006 122.929 -111.49 122.929C-110.67 122.929 -109.911 123.032 -109.215 123.237C-108.497 123.442 -107.718 123.749 -106.878 124.159L-106.632 123.267H-103.927ZM-112.197 137.189C-111.213 137.189 -110.342 136.995 -109.584 136.605C-108.805 136.196 -108.046 135.601 -107.308 134.823V126.003C-108.62 125.552 -109.922 125.327 -111.213 125.327C-112.709 125.327 -113.867 125.9 -114.687 127.048C-115.486 128.174 -115.886 129.629 -115.886 131.412C-115.886 133.112 -115.599 134.505 -115.025 135.591C-114.431 136.657 -113.488 137.189 -112.197 137.189Z" fill="black"/>
<path d="M74.9259 123.267L74.2496 126.832V146.47H71.5441V137.527C70.1093 138.961 68.3364 139.679 66.2253 139.679C64.2371 139.679 62.7101 138.91 61.6443 137.374C60.5785 135.837 60.0456 133.87 60.0456 131.473C60.0456 129.834 60.3326 128.369 60.9065 127.078C61.5009 125.788 62.3412 124.773 63.4275 124.036C64.5343 123.298 65.8461 122.929 67.3628 122.929C68.1827 122.929 68.941 123.032 69.6379 123.237C70.3553 123.442 71.1341 123.749 71.9745 124.159L72.2204 123.267H74.9259ZM66.6557 137.189C67.6395 137.189 68.5106 136.995 69.269 136.605C70.0478 136.196 70.8062 135.601 71.5441 134.823V126.003C70.2323 125.552 68.9308 125.327 67.6395 125.327C66.1433 125.327 64.9852 125.9 64.1654 127.048C63.366 128.174 62.9663 129.629 62.9663 131.412C62.9663 133.112 63.2533 134.505 63.8272 135.591C64.4216 136.657 65.3644 137.189 66.6557 137.189Z" fill="black"/>
<path d="M-287.126 164.275L-293.059 180.317H-296.749L-302.682 164.275H-299.915L-294.842 178.135L-289.77 164.275H-287.126Z" fill="black"/>
<path d="M-119.352 164.275L-125.286 180.317H-128.975L-134.909 164.275H-132.142L-127.069 178.135L-121.996 164.275H-119.352Z" fill="black"/>
<path d="M-294.289 221.662C-295.785 221.662 -297.097 221.304 -298.224 220.587C-299.352 219.87 -300.212 218.886 -300.807 217.636C-301.401 216.366 -301.698 214.932 -301.698 213.334C-301.698 211.715 -301.401 210.271 -300.807 209.001C-300.212 207.71 -299.352 206.706 -298.224 205.989C-297.097 205.251 -295.775 204.882 -294.258 204.882C-293.192 204.882 -292.26 204.995 -291.461 205.22C-290.661 205.446 -289.903 205.856 -289.185 206.45V209.062H-289.308C-290.046 208.447 -290.815 208.007 -291.614 207.74C-292.393 207.474 -293.285 207.341 -294.289 207.341C-295.744 207.341 -296.872 207.904 -297.671 209.031C-298.45 210.158 -298.839 211.603 -298.839 213.365C-298.839 215.065 -298.45 216.468 -297.671 217.575C-296.872 218.661 -295.755 219.204 -294.32 219.204C-293.254 219.204 -292.301 219.04 -291.461 218.712C-290.62 218.364 -289.79 217.821 -288.97 217.083H-288.847V219.695C-289.606 220.412 -290.425 220.925 -291.307 221.232C-292.168 221.519 -293.162 221.662 -294.289 221.662Z" fill="black"/>
<path d="M-183.05 221.662C-184.547 221.662 -185.858 221.304 -186.986 220.587C-188.113 219.87 -188.974 218.886 -189.568 217.636C-190.163 216.366 -190.46 214.932 -190.46 213.334C-190.46 211.715 -190.163 210.271 -189.568 209.001C-188.974 207.71 -188.113 206.706 -186.986 205.989C-185.858 205.251 -184.536 204.882 -183.02 204.882C-181.954 204.882 -181.021 204.995 -180.222 205.22C-179.423 205.446 -178.664 205.856 -177.947 206.45V209.062H-178.07C-178.808 208.447 -179.576 208.007 -180.376 207.74C-181.155 207.474 -182.046 207.341 -183.05 207.341C-184.506 207.341 -185.633 207.904 -186.432 209.031C-187.211 210.158 -187.601 211.603 -187.601 213.365C-187.601 215.065 -187.211 216.468 -186.432 217.575C-185.633 218.661 -184.516 219.204 -183.081 219.204C-182.015 219.204 -181.062 219.04 -180.222 218.712C-179.382 218.364 -178.551 217.821 -177.732 217.083H-177.609V219.695C-178.367 220.412 -179.187 220.925 -180.068 221.232C-180.929 221.519 -181.923 221.662 -183.05 221.662Z" fill="black"/>
<path d="M-313.705 262.27L-318.778 255.632L-323.697 262.27H-326.679L-320.223 253.788L-326.003 246.228H-322.744L-318.348 251.975L-314.105 246.228H-311.123L-316.903 253.849L-310.446 262.27H-313.705Z" fill="black"/>
<path d="M-229.768 262.639C-231.264 262.639 -232.576 262.28 -233.703 261.563C-234.83 260.846 -235.691 259.863 -236.285 258.613C-236.88 257.343 -237.177 255.908 -237.177 254.31C-237.177 252.692 -236.88 251.247 -236.285 249.977C-235.691 248.686 -234.83 247.682 -233.703 246.965C-232.576 246.228 -231.254 245.859 -229.737 245.859C-228.671 245.859 -227.739 245.972 -226.939 246.197C-226.14 246.422 -225.381 246.832 -224.664 247.426V250.038H-224.787C-225.525 249.424 -226.294 248.983 -227.093 248.717C-227.872 248.451 -228.763 248.317 -229.768 248.317C-231.223 248.317 -232.35 248.881 -233.15 250.008C-233.928 251.135 -234.318 252.579 -234.318 254.341C-234.318 256.042 -233.928 257.445 -233.15 258.551C-232.35 259.637 -231.233 260.18 -229.798 260.18C-228.733 260.18 -227.779 260.016 -226.939 259.688C-226.099 259.34 -225.269 258.797 -224.449 258.06H-224.326V260.672C-225.084 261.389 -225.904 261.901 -226.785 262.208C-227.646 262.495 -228.64 262.639 -229.768 262.639Z" fill="black"/>
<path d="M-147.414 262.639C-148.009 262.639 -148.511 262.444 -148.921 262.055C-149.31 261.666 -149.505 261.153 -149.505 260.518C-149.505 259.883 -149.31 259.371 -148.921 258.982C-148.511 258.592 -148.009 258.398 -147.414 258.398C-146.82 258.398 -146.328 258.592 -145.939 258.982C-145.529 259.371 -145.324 259.883 -145.324 260.518C-145.324 261.153 -145.529 261.666 -145.939 262.055C-146.328 262.444 -146.82 262.639 -147.414 262.639Z" fill="black"/>
<path d="M-333.459 287.173L-334.136 290.738V310.376H-336.841V301.433C-338.276 302.867 -340.049 303.584 -342.16 303.584C-344.148 303.584 -345.675 302.816 -346.741 301.28C-347.807 299.743 -348.34 297.776 -348.34 295.379C-348.34 293.74 -348.053 292.275 -347.479 290.984C-346.885 289.693 -346.044 288.679 -344.958 287.942C-343.851 287.204 -342.539 286.835 -341.023 286.835C-340.203 286.835 -339.444 286.938 -338.748 287.143C-338.03 287.348 -337.251 287.655 -336.411 288.065L-336.165 287.173H-333.459ZM-341.73 301.095C-340.746 301.095 -339.875 300.901 -339.116 300.511C-338.338 300.101 -337.579 299.507 -336.841 298.729V289.909C-338.153 289.458 -339.455 289.232 -340.746 289.232C-342.242 289.232 -343.4 289.806 -344.22 290.953C-345.019 292.08 -345.419 293.535 -345.419 295.317C-345.419 297.018 -345.132 298.411 -344.558 299.497C-343.964 300.562 -343.021 301.095 -341.73 301.095Z" fill="black"/>
<path d="M-235.184 287.204L-241.118 303.246H-244.807L-250.741 287.204H-247.974L-242.901 301.064L-237.828 287.204H-235.184Z" fill="black"/>
<path d="M-147.408 340.535C-147.408 341.764 -147.593 343.035 -147.962 344.346C-148.331 345.657 -148.987 347.153 -149.929 348.833H-152.635C-151.959 347.726 -151.467 346.681 -151.159 345.698C-150.852 344.735 -150.667 343.885 -150.606 343.147C-150.524 342.41 -150.483 341.539 -150.483 340.535H-147.408Z" fill="black"/>
<path d="M-39.3751 328.15L-40.0515 331.715V351.353H-42.757V342.41C-44.1918 343.844 -45.9647 344.561 -48.0758 344.561C-50.0639 344.561 -51.5909 343.793 -52.6567 342.256C-53.7225 340.719 -54.2555 338.753 -54.2555 336.355C-54.2555 334.716 -53.9685 333.251 -53.3946 331.961C-52.8002 330.67 -51.9599 329.656 -50.8736 328.918C-49.7668 328.181 -48.455 327.812 -46.9383 327.812C-46.1184 327.812 -45.3601 327.914 -44.6632 328.119C-43.9458 328.324 -43.1669 328.631 -42.3266 329.041L-42.0807 328.15H-39.3751ZM-47.6454 342.072C-46.6616 342.072 -45.7905 341.877 -45.0321 341.488C-44.2532 341.078 -43.4949 340.484 -42.757 339.705V330.885C-44.0688 330.434 -45.3703 330.209 -46.6616 330.209C-48.1578 330.209 -49.3159 330.783 -50.1357 331.93C-50.9351 333.057 -51.3347 334.511 -51.3347 336.294C-51.3347 337.994 -51.0478 339.388 -50.4739 340.474C-49.8795 341.539 -48.9367 342.072 -47.6454 342.072Z" fill="black"/>
<path d="M51.7367 344.592C50.2404 344.592 48.9287 344.233 47.8014 343.516C46.6741 342.799 45.8132 341.816 45.2188 340.566C44.6244 339.295 44.3272 337.861 44.3272 336.263C44.3272 334.645 44.6244 333.2 45.2188 331.93C45.8132 330.639 46.6741 329.635 47.8014 328.918C48.9287 328.181 50.2507 327.812 51.7674 327.812C52.8332 327.812 53.7658 327.925 54.5652 328.15C55.3645 328.375 56.1229 328.785 56.8403 329.379V331.991H56.7173C55.9794 331.377 55.2108 330.936 54.4114 330.67C53.6326 330.404 52.741 330.27 51.7367 330.27C50.2814 330.27 49.1541 330.834 48.3548 331.961C47.5759 333.088 47.1865 334.532 47.1865 336.294C47.1865 337.994 47.5759 339.398 48.3548 340.504C49.1541 341.59 50.2712 342.133 51.7059 342.133C52.7717 342.133 53.7248 341.969 54.5652 341.641C55.4055 341.293 56.2356 340.75 57.0555 340.013H57.1784V342.625C56.4201 343.342 55.6002 343.854 54.7189 344.161C53.858 344.448 52.864 344.592 51.7367 344.592Z" fill="black"/>
<path d="M-79.6372 369.126L-80.3136 372.691V392.329H-83.0191V383.386C-84.4538 384.82 -86.2268 385.537 -88.3379 385.537C-90.326 385.537 -91.853 384.769 -92.9188 383.233C-93.9846 381.696 -94.5175 379.729 -94.5175 377.332C-94.5175 375.693 -94.2306 374.228 -93.6567 372.937C-93.0623 371.646 -92.222 370.632 -91.1357 369.895C-90.0288 369.157 -88.7171 368.788 -87.2003 368.788C-86.3805 368.788 -85.6221 368.891 -84.9253 369.096C-84.2079 369.3 -83.429 369.608 -82.5887 370.018L-82.3427 369.126H-79.6372ZM-87.9075 383.048C-86.9236 383.048 -86.0526 382.853 -85.2942 382.464C-84.5153 382.054 -83.757 381.46 -83.0191 380.682V371.862C-84.3309 371.411 -85.6324 371.185 -86.9236 371.185C-88.4199 371.185 -89.5779 371.759 -90.3978 372.906C-91.1972 374.033 -91.5968 375.488 -91.5968 377.27C-91.5968 378.971 -91.3099 380.364 -90.736 381.45C-90.1416 382.515 -89.1987 383.048 -87.9075 383.048Z" fill="black"/>
<path d="M169.208 369.157L163.274 385.199H159.585L153.651 369.157H156.418L161.491 383.017L166.564 369.157H169.208Z" fill="black"/>
<path d="M-286.142 410.103L-286.818 413.668V433.306H-289.524V424.363C-290.958 425.797 -292.731 426.514 -294.842 426.514C-296.831 426.514 -298.358 425.746 -299.423 424.209C-300.489 422.672 -301.022 420.706 -301.022 418.308C-301.022 416.669 -300.735 415.204 -300.161 413.914C-299.567 412.623 -298.727 411.609 -297.64 410.871C-296.533 410.134 -295.222 409.765 -293.705 409.765C-292.885 409.765 -292.127 409.867 -291.43 410.072C-290.712 410.277 -289.934 410.584 -289.093 410.994L-288.847 410.103H-286.142ZM-294.412 424.025C-293.428 424.025 -292.557 423.83 -291.799 423.441C-291.02 423.031 -290.262 422.437 -289.524 421.658V412.838C-290.835 412.387 -292.137 412.162 -293.428 412.162C-294.924 412.162 -296.082 412.736 -296.902 413.883C-297.702 415.01 -298.101 416.464 -298.101 418.247C-298.101 419.947 -297.814 421.341 -297.241 422.427C-296.646 423.492 -295.703 424.025 -294.412 424.025Z" fill="black"/>
<path d="M-147.712 426.545C-149.208 426.545 -150.52 426.186 -151.648 425.469C-152.775 424.752 -153.636 423.768 -154.23 422.519C-154.824 421.248 -155.122 419.814 -155.122 418.216C-155.122 416.598 -154.824 415.153 -154.23 413.883C-153.636 412.592 -152.775 411.588 -151.648 410.871C-150.52 410.134 -149.198 409.765 -147.682 409.765C-146.616 409.765 -145.683 409.877 -144.884 410.103C-144.084 410.328 -143.326 410.738 -142.609 411.332V413.944H-142.732C-143.47 413.33 -144.238 412.889 -145.037 412.623C-145.816 412.357 -146.708 412.223 -147.712 412.223C-149.167 412.223 -150.295 412.787 -151.094 413.914C-151.873 415.04 -152.262 416.485 -152.262 418.247C-152.262 419.947 -151.873 421.351 -151.094 422.457C-150.295 423.543 -149.178 424.086 -147.743 424.086C-146.677 424.086 -145.724 423.922 -144.884 423.594C-144.043 423.246 -143.213 422.703 -142.393 421.966H-142.27V424.578C-143.029 425.295 -143.849 425.807 -144.73 426.114C-145.591 426.401 -146.585 426.545 -147.712 426.545Z" fill="black"/>
<path d="M-41.7002 426.545C-42.2946 426.545 -42.7967 426.35 -43.2067 425.961C-43.5961 425.571 -43.7908 425.059 -43.7908 424.424C-43.7908 423.789 -43.5961 423.277 -43.2067 422.888C-42.7967 422.498 -42.2946 422.304 -41.7002 422.304C-41.1058 422.304 -40.6139 422.498 -40.2245 422.888C-39.8145 423.277 -39.6096 423.789 -39.6096 424.424C-39.6096 425.059 -39.8145 425.571 -40.2245 425.961C-40.6139 426.35 -41.1058 426.545 -41.7002 426.545Z" fill="black"/>
<path d="M35.5946 410.103L34.9182 413.668V433.306H32.2127V424.363C30.778 425.797 29.005 426.514 26.8939 426.514C24.9058 426.514 23.3788 425.746 22.313 424.209C21.2472 422.672 20.7143 420.706 20.7143 418.308C20.7143 416.669 21.0012 415.204 21.5751 413.914C22.1695 412.623 23.0099 411.609 24.0962 410.871C25.203 410.134 26.5147 409.765 28.0315 409.765C28.8513 409.765 29.6097 409.867 30.3066 410.072C31.024 410.277 31.8028 410.584 32.6431 410.994L32.8891 410.103H35.5946ZM27.3243 424.025C28.3082 424.025 29.1793 423.83 29.9376 423.441C30.7165 423.031 31.4748 422.437 32.2127 421.658V412.838C30.9009 412.387 29.5994 412.162 28.3082 412.162C26.8119 412.162 25.6539 412.736 24.834 413.883C24.0347 415.01 23.635 416.464 23.635 418.247C23.635 419.947 23.922 421.341 24.4958 422.427C25.0902 423.492 26.0331 424.025 27.3243 424.025Z" fill="black"/>
<path d="M238.106 410.103L237.43 413.668V433.306H234.724V424.363C233.289 425.797 231.516 426.514 229.405 426.514C227.417 426.514 225.89 425.746 224.824 424.209C223.759 422.672 223.226 420.706 223.226 418.308C223.226 416.669 223.513 415.204 224.086 413.914C224.681 412.623 225.521 411.609 226.607 410.871C227.714 410.134 229.026 409.765 230.543 409.765C231.363 409.765 232.121 409.867 232.818 410.072C233.535 410.277 234.314 410.584 235.154 410.994L235.4 410.103H238.106ZM229.836 424.025C230.82 424.025 231.691 423.83 232.449 423.441C233.228 423.031 233.986 422.437 234.724 421.658V412.838C233.412 412.387 232.111 412.162 230.82 412.162C229.323 412.162 228.165 412.736 227.345 413.883C226.546 415.01 226.146 416.464 226.146 418.247C226.146 419.947 226.433 421.341 227.007 422.427C227.602 423.492 228.544 424.025 229.836 424.025Z" fill="black"/>
<path d="M328.748 410.103L328.072 413.668V433.306H325.366V424.363C323.932 425.797 322.159 426.514 320.047 426.514C318.059 426.514 316.532 425.746 315.467 424.209C314.401 422.672 313.868 420.706 313.868 418.308C313.868 416.669 314.155 415.204 314.729 413.914C315.323 412.623 316.163 411.609 317.25 410.871C318.357 410.134 319.668 409.765 321.185 409.765C322.005 409.765 322.763 409.867 323.46 410.072C324.178 410.277 324.956 410.584 325.797 410.994L326.043 410.103H328.748ZM320.478 424.025C321.462 424.025 322.333 423.83 323.091 423.441C323.87 423.031 324.628 422.437 325.366 421.658V412.838C324.055 412.387 322.753 412.162 321.462 412.162C319.965 412.162 318.807 412.736 317.988 413.883C317.188 415.01 316.789 416.464 316.789 418.247C316.789 419.947 317.076 421.341 317.649 422.427C318.244 423.492 319.187 424.025 320.478 424.025Z" fill="black"/>
<path d="M-274.32 463.464C-274.32 464.694 -274.504 465.964 -274.873 467.275C-275.242 468.586 -275.898 470.082 -276.841 471.762H-279.546C-278.87 470.656 -278.378 469.611 -278.07 468.628C-277.763 467.665 -277.578 466.814 -277.517 466.077C-277.435 465.339 -277.394 464.468 -277.394 463.464H-274.32Z" fill="black"/>
<path d="M-245.88 451.079L-246.556 454.644V474.282H-249.262V465.339C-250.696 466.773 -252.469 467.49 -254.58 467.49C-256.569 467.49 -258.095 466.722 -259.161 465.185C-260.227 463.649 -260.76 461.682 -260.76 459.285C-260.76 457.646 -260.473 456.181 -259.899 454.89C-259.305 453.599 -258.464 452.585 -257.378 451.848C-256.271 451.11 -254.96 450.741 -253.443 450.741C-252.623 450.741 -251.865 450.844 -251.168 451.049C-250.45 451.253 -249.671 451.561 -248.831 451.971L-248.585 451.079H-245.88ZM-254.15 465.001C-253.166 465.001 -252.295 464.806 -251.537 464.417C-250.758 464.007 -249.999 463.413 -249.262 462.635V453.814C-250.573 453.364 -251.875 453.138 -253.166 453.138C-254.662 453.138 -255.82 453.712 -256.64 454.859C-257.44 455.986 -257.839 457.441 -257.839 459.223C-257.839 460.924 -257.552 462.317 -256.978 463.403C-256.384 464.468 -255.441 465.001 -254.15 465.001Z" fill="black"/>
<path d="M130.861 451.079L130.184 454.644V474.282H127.479V465.339C126.044 466.773 124.271 467.49 122.16 467.49C120.172 467.49 118.645 466.722 117.579 465.185C116.513 463.649 115.98 461.682 115.98 459.285C115.98 457.646 116.267 456.181 116.841 454.89C117.435 453.599 118.276 452.585 119.362 451.848C120.469 451.11 121.781 450.741 123.297 450.741C124.117 450.741 124.876 450.844 125.572 451.049C126.29 451.253 127.069 451.561 127.909 451.971L128.155 451.079H130.861ZM122.59 465.001C123.574 465.001 124.445 464.806 125.204 464.417C125.982 464.007 126.741 463.413 127.479 462.635V453.814C126.167 453.364 124.865 453.138 123.574 453.138C122.078 453.138 120.92 453.712 120.1 454.859C119.301 455.986 118.901 457.441 118.901 459.223C118.901 460.924 119.188 462.317 119.762 463.403C120.356 464.468 121.299 465.001 122.59 465.001Z" fill="black"/>
<path d="M-250.661 504.441C-250.661 505.67 -250.845 506.94 -251.214 508.252C-251.583 509.563 -252.239 511.059 -253.182 512.739H-255.887C-255.211 511.632 -254.719 510.587 -254.412 509.604C-254.104 508.641 -253.92 507.791 -253.858 507.053C-253.776 506.316 -253.735 505.445 -253.735 504.441H-250.661Z" fill="black"/>
<path d="M-230.368 508.498C-231.864 508.498 -233.176 508.139 -234.303 507.422C-235.431 506.705 -236.292 505.721 -236.886 504.472C-237.48 503.201 -237.778 501.767 -237.778 500.169C-237.778 498.551 -237.48 497.106 -236.886 495.836C-236.292 494.545 -235.431 493.541 -234.303 492.824C-233.176 492.087 -231.854 491.718 -230.337 491.718C-229.272 491.718 -228.339 491.83 -227.54 492.056C-226.74 492.281 -225.982 492.691 -225.265 493.285V495.897H-225.388C-226.125 495.283 -226.894 494.842 -227.693 494.576C-228.472 494.31 -229.364 494.176 -230.368 494.176C-231.823 494.176 -232.951 494.74 -233.75 495.867C-234.529 496.993 -234.918 498.438 -234.918 500.2C-234.918 501.9 -234.529 503.304 -233.75 504.41C-232.951 505.496 -231.834 506.039 -230.399 506.039C-229.333 506.039 -228.38 505.875 -227.54 505.547C-226.699 505.199 -225.869 504.656 -225.049 503.918H-224.926V506.531C-225.685 507.248 -226.505 507.76 -227.386 508.067C-228.247 508.354 -229.241 508.498 -230.368 508.498Z" fill="black"/>
<path d="M-119.129 508.498C-120.626 508.498 -121.937 508.139 -123.065 507.422C-124.192 506.705 -125.053 505.721 -125.647 504.472C-126.242 503.201 -126.539 501.767 -126.539 500.169C-126.539 498.551 -126.242 497.106 -125.647 495.836C-125.053 494.545 -124.192 493.541 -123.065 492.824C-121.937 492.087 -120.615 491.718 -119.099 491.718C-118.033 491.718 -117.1 491.83 -116.301 492.056C-115.502 492.281 -114.743 492.691 -114.026 493.285V495.897H-114.149C-114.887 495.283 -115.655 494.842 -116.455 494.576C-117.234 494.31 -118.125 494.176 -119.129 494.176C-120.585 494.176 -121.712 494.74 -122.511 495.867C-123.29 496.993 -123.68 498.438 -123.68 500.2C-123.68 501.9 -123.29 503.304 -122.511 504.41C-121.712 505.496 -120.595 506.039 -119.16 506.039C-118.094 506.039 -117.141 505.875 -116.301 505.547C-115.461 505.199 -114.631 504.656 -113.811 503.918H-113.688V506.531C-114.446 507.248 -115.266 507.76 -116.147 508.067C-117.008 508.354 -118.002 508.498 -119.129 508.498Z" fill="black"/>
<path d="M12.0787 504.441C12.0787 505.67 11.8942 506.94 11.5253 508.252C11.1563 509.563 10.5005 511.059 9.55765 512.739H6.85208C7.52846 511.632 8.02041 510.587 8.32785 509.604C8.6353 508.641 8.81974 507.791 8.88123 507.053C8.96321 506.316 9.00424 505.445 9.00424 504.441H12.0787Z" fill="black"/>
<path d="M174.324 508.498C172.828 508.498 171.516 508.139 170.389 507.422C169.262 506.705 168.401 505.721 167.807 504.472C167.212 503.201 166.915 501.767 166.915 500.169C166.915 498.551 167.212 497.106 167.807 495.836C168.401 494.545 169.262 493.541 170.389 492.824C171.516 492.087 172.838 491.718 174.355 491.718C175.421 491.718 176.353 491.83 177.153 492.056C177.952 492.281 178.711 492.691 179.428 493.285V495.897H179.305C178.567 495.283 177.799 494.842 176.999 494.576C176.22 494.31 175.329 494.176 174.324 494.176C172.869 494.176 171.742 494.74 170.943 495.867C170.164 496.993 169.774 498.438 169.774 500.2C169.774 501.9 170.164 503.304 170.943 504.41C171.742 505.496 172.859 506.039 174.294 506.039C175.359 506.039 176.312 505.875 177.153 505.547C177.993 505.199 178.823 504.656 179.643 503.918H179.766V506.531C179.008 507.248 178.188 507.76 177.307 508.067C176.446 508.354 175.452 508.498 174.324 508.498Z" fill="black"/>
<path d="M230.367 492.087L224.433 508.129H220.744L214.81 492.087H217.577L222.65 505.947L227.723 492.087H230.367Z" fill="black"/>
<path d="M331.353 504.441C331.353 505.67 331.169 506.94 330.8 508.252C330.431 509.563 329.775 511.059 328.832 512.739H326.126C326.803 511.632 327.295 510.587 327.602 509.604C327.91 508.641 328.094 507.791 328.156 507.053C328.238 506.316 328.279 505.445 328.279 504.441H331.353Z" fill="black"/>
<path d="M-333.459 533.032L-334.136 536.597V556.235H-336.841V547.292C-338.276 548.726 -340.049 549.443 -342.16 549.443C-344.148 549.443 -345.675 548.675 -346.741 547.138C-347.807 545.602 -348.34 543.635 -348.34 541.238C-348.34 539.599 -348.053 538.134 -347.479 536.843C-346.885 535.552 -346.044 534.538 -344.958 533.801C-343.851 533.063 -342.539 532.694 -341.023 532.694C-340.203 532.694 -339.444 532.797 -338.748 533.002C-338.03 533.206 -337.251 533.514 -336.411 533.924L-336.165 533.032H-333.459ZM-341.73 546.954C-340.746 546.954 -339.875 546.759 -339.116 546.37C-338.338 545.96 -337.579 545.366 -336.841 544.588V535.767C-338.153 535.317 -339.455 535.091 -340.746 535.091C-342.242 535.091 -343.4 535.665 -344.22 536.812C-345.019 537.939 -345.419 539.394 -345.419 541.176C-345.419 542.877 -345.132 544.27 -344.558 545.356C-343.964 546.421 -343.021 546.954 -341.73 546.954Z" fill="black"/>
<path d="M-83.6304 533.032L-84.3068 536.597V556.235H-87.0123V547.292C-88.447 548.726 -90.22 549.443 -92.3311 549.443C-94.3192 549.443 -95.8462 548.675 -96.912 547.138C-97.9778 545.602 -98.5107 543.635 -98.5107 541.238C-98.5107 539.599 -98.2238 538.134 -97.6499 536.843C-97.0555 535.552 -96.2151 534.538 -95.1288 533.801C-94.022 533.063 -92.7102 532.694 -91.1935 532.694C-90.3737 532.694 -89.6153 532.797 -88.9184 533.002C-88.2011 533.206 -87.4222 533.514 -86.5818 533.924L-86.3359 533.032H-83.6304ZM-91.9007 546.954C-90.9168 546.954 -90.0457 546.759 -89.2874 546.37C-88.5085 545.96 -87.7501 545.366 -87.0123 544.588V535.767C-88.324 535.317 -89.6255 535.091 -90.9168 535.091C-92.413 535.091 -93.5711 535.665 -94.391 536.812C-95.1903 537.939 -95.59 539.394 -95.59 541.176C-95.59 542.877 -95.3031 544.27 -94.7292 545.356C-94.1348 546.421 -93.1919 546.954 -91.9007 546.954Z" fill="black"/>
<path d="M-294.289 590.451C-295.785 590.451 -297.097 590.092 -298.224 589.375C-299.352 588.658 -300.212 587.674 -300.807 586.425C-301.401 585.154 -301.698 583.72 -301.698 582.122C-301.698 580.504 -301.401 579.059 -300.807 577.789C-300.212 576.498 -299.352 575.494 -298.224 574.777C-297.097 574.04 -295.775 573.671 -294.258 573.671C-293.192 573.671 -292.26 573.783 -291.461 574.009C-290.661 574.234 -289.903 574.644 -289.185 575.238V577.85H-289.308C-290.046 577.236 -290.815 576.795 -291.614 576.529C-292.393 576.262 -293.285 576.129 -294.289 576.129C-295.744 576.129 -296.872 576.693 -297.671 577.82C-298.45 578.946 -298.839 580.391 -298.839 582.153C-298.839 583.853 -298.45 585.257 -297.671 586.363C-296.872 587.449 -295.755 587.992 -294.32 587.992C-293.254 587.992 -292.301 587.828 -291.461 587.5C-290.62 587.152 -289.79 586.609 -288.97 585.871H-288.847V588.484C-289.606 589.201 -290.425 589.713 -291.307 590.02C-292.168 590.307 -293.162 590.451 -294.289 590.451Z" fill="black"/>
<path d="M-262.483 614.985L-263.159 618.55V638.188H-265.865V629.245C-267.3 630.679 -269.072 631.396 -271.184 631.396C-273.172 631.396 -274.699 630.628 -275.765 629.091C-276.83 627.555 -277.363 625.588 -277.363 623.191C-277.363 621.552 -277.076 620.087 -276.502 618.796C-275.908 617.505 -275.068 616.491 -273.981 615.754C-272.875 615.016 -271.563 614.647 -270.046 614.647C-269.226 614.647 -268.468 614.75 -267.771 614.954C-267.054 615.159 -266.275 615.467 -265.434 615.876L-265.188 614.985H-262.483ZM-270.753 628.907C-269.769 628.907 -268.898 628.712 -268.14 628.323C-267.361 627.913 -266.603 627.319 -265.865 626.541V617.72C-267.177 617.27 -268.478 617.044 -269.769 617.044C-271.266 617.044 -272.424 617.618 -273.243 618.765C-274.043 619.892 -274.443 621.347 -274.443 623.129C-274.443 624.83 -274.156 626.223 -273.582 627.309C-272.987 628.374 -272.044 628.907 -270.753 628.907Z" fill="black"/>
<path d="M-163.224 614.985L-163.9 618.55V638.188H-166.606V629.245C-168.04 630.679 -169.813 631.396 -171.925 631.396C-173.913 631.396 -175.44 630.628 -176.505 629.091C-177.571 627.555 -178.104 625.588 -178.104 623.191C-178.104 621.552 -177.817 620.087 -177.243 618.796C-176.649 617.505 -175.809 616.491 -174.722 615.754C-173.615 615.016 -172.304 614.647 -170.787 614.647C-169.967 614.647 -169.209 614.75 -168.512 614.954C-167.794 615.159 -167.016 615.467 -166.175 615.876L-165.929 614.985H-163.224ZM-171.494 628.907C-170.51 628.907 -169.639 628.712 -168.881 628.323C-168.102 627.913 -167.344 627.319 -166.606 626.541V617.72C-167.917 617.27 -169.219 617.044 -170.51 617.044C-172.007 617.044 -173.165 617.618 -173.984 618.765C-174.784 619.892 -175.183 621.347 -175.183 623.129C-175.183 624.83 -174.896 626.223 -174.323 627.309C-173.728 628.374 -172.785 628.907 -171.494 628.907Z" fill="black"/>
<path d="M6.02802 615.016L0.0943298 631.058H-3.595L-9.52872 615.016H-6.76169L-1.68884 628.876L3.384 615.016H6.02802Z" fill="black"/>
<path d="M223.771 631.427C223.177 631.427 222.675 631.232 222.265 630.843C221.875 630.454 221.681 629.942 221.681 629.307C221.681 628.671 221.875 628.159 222.265 627.77C222.675 627.381 223.177 627.186 223.771 627.186C224.366 627.186 224.858 627.381 225.247 627.77C225.657 628.159 225.862 628.671 225.862 629.307C225.862 629.942 225.657 630.454 225.247 630.843C224.858 631.232 224.366 631.427 223.771 631.427Z" fill="black"/>
<path d="M-183.873 655.992L-189.807 672.035H-193.496L-199.43 655.992H-196.663L-191.59 669.853L-186.517 655.992H-183.873Z" fill="black"/>
<path d="M-59.2281 668.347C-59.2281 669.576 -59.4126 670.846 -59.7816 672.158C-60.1505 673.469 -60.8063 674.965 -61.7492 676.645H-64.4547C-63.7783 675.538 -63.2864 674.493 -62.979 673.51C-62.6715 672.547 -62.4871 671.697 -62.4256 670.959C-62.3436 670.222 -62.3026 669.351 -62.3026 668.347H-59.2281Z" fill="black"/>
<path d="M-30.7883 655.962L-31.4647 659.527V679.165H-34.1702V670.221C-35.6049 671.656 -37.3779 672.373 -39.489 672.373C-41.4771 672.373 -43.0041 671.604 -44.0699 670.068C-45.1357 668.531 -45.6686 666.564 -45.6686 664.167C-45.6686 662.528 -45.3817 661.063 -44.8078 659.773C-44.2134 658.482 -43.373 657.468 -42.2867 656.73C-41.1799 655.992 -39.8681 655.624 -38.3514 655.624C-37.5316 655.624 -36.7732 655.726 -36.0763 655.931C-35.359 656.136 -34.5801 656.443 -33.7397 656.853L-33.4938 655.962H-30.7883ZM-39.0585 669.883C-38.0747 669.883 -37.2036 669.689 -36.4453 669.3C-35.6664 668.89 -34.908 668.296 -34.1702 667.517V658.697C-35.4819 658.246 -36.7834 658.021 -38.0747 658.021C-39.5709 658.021 -40.729 658.594 -41.5489 659.742C-42.3482 660.869 -42.7479 662.323 -42.7479 664.106C-42.7479 665.806 -42.461 667.199 -41.8871 668.285C-41.2927 669.351 -40.3498 669.883 -39.0585 669.883Z" fill="black"/>
<path d="M-313.705 713.011L-318.778 706.373L-323.697 713.011H-326.679L-320.223 704.529L-326.003 696.969H-322.744L-318.348 702.716L-314.105 696.969H-311.123L-316.903 704.591L-310.446 713.011H-313.705Z" fill="black"/>
<path d="M-253.426 713.38C-254.923 713.38 -256.234 713.021 -257.362 712.304C-258.489 711.587 -259.35 710.604 -259.944 709.354C-260.539 708.084 -260.836 706.65 -260.836 705.052C-260.836 703.433 -260.539 701.989 -259.944 700.718C-259.35 699.428 -258.489 698.424 -257.362 697.706C-256.234 696.969 -254.912 696.6 -253.396 696.6C-252.33 696.6 -251.397 696.713 -250.598 696.938C-249.799 697.164 -249.04 697.573 -248.323 698.167V700.78H-248.446C-249.184 700.165 -249.952 699.725 -250.752 699.458C-251.531 699.192 -252.422 699.059 -253.426 699.059C-254.882 699.059 -256.009 699.622 -256.808 700.749C-257.587 701.876 -257.977 703.32 -257.977 705.082C-257.977 706.783 -257.587 708.186 -256.808 709.293C-256.009 710.378 -254.892 710.921 -253.457 710.921C-252.391 710.921 -251.438 710.757 -250.598 710.43C-249.758 710.081 -248.928 709.538 -248.108 708.801H-247.985V711.413C-248.743 712.13 -249.563 712.642 -250.444 712.95C-251.305 713.237 -252.299 713.38 -253.426 713.38Z" fill="black"/>
<path d="M111.634 713.38C110.138 713.38 108.826 713.021 107.699 712.304C106.572 711.587 105.711 710.604 105.117 709.354C104.522 708.084 104.225 706.65 104.225 705.052C104.225 703.433 104.522 701.989 105.117 700.718C105.711 699.428 106.572 698.424 107.699 697.706C108.826 696.969 110.148 696.6 111.665 696.6C112.731 696.6 113.664 696.713 114.463 696.938C115.262 697.164 116.021 697.573 116.738 698.167V700.78H116.615C115.877 700.165 115.109 699.725 114.309 699.458C113.53 699.192 112.639 699.059 111.634 699.059C110.179 699.059 109.052 699.622 108.253 700.749C107.474 701.876 107.084 703.32 107.084 705.082C107.084 706.783 107.474 708.186 108.253 709.293C109.052 710.378 110.169 710.921 111.604 710.921C112.669 710.921 113.623 710.757 114.463 710.43C115.303 710.081 116.133 709.538 116.953 708.801H117.076V711.413C116.318 712.13 115.498 712.642 114.617 712.95C113.756 713.237 112.762 713.38 111.634 713.38Z" fill="black"/>
<path d="M-270.63 754.356C-272.126 754.356 -273.438 753.998 -274.565 753.281C-275.693 752.564 -276.554 751.58 -277.148 750.331C-277.742 749.06 -278.04 747.626 -278.04 746.028C-278.04 744.409 -277.742 742.965 -277.148 741.695C-276.554 740.404 -275.693 739.4 -274.565 738.683C-273.438 737.945 -272.116 737.577 -270.599 737.577C-269.534 737.577 -268.601 737.689 -267.802 737.915C-267.002 738.14 -266.244 738.55 -265.527 739.144V741.756H-265.65C-266.387 741.142 -267.156 740.701 -267.955 740.435C-268.734 740.168 -269.626 740.035 -270.63 740.035C-272.085 740.035 -273.213 740.599 -274.012 741.725C-274.791 742.852 -275.18 744.297 -275.18 746.059C-275.18 747.759 -274.791 749.163 -274.012 750.269C-273.213 751.355 -272.096 751.898 -270.661 751.898C-269.595 751.898 -268.642 751.734 -267.802 751.406C-266.961 751.058 -266.131 750.515 -265.311 749.777H-265.188V752.39C-265.947 753.107 -266.767 753.619 -267.648 753.926C-268.509 754.213 -269.503 754.356 -270.63 754.356Z" fill="black"/>
<path d="M82.1245 750.3C82.1245 751.529 81.94 752.799 81.5711 754.111C81.2021 755.422 80.5463 756.917 79.6035 758.598H76.8979C77.5743 757.491 78.0662 756.446 78.3737 755.463C78.6811 754.5 78.8656 753.65 78.9271 752.912C79.009 752.174 79.05 751.304 79.05 750.3H82.1245Z" fill="black"/>
<path d="M340.728 737.915L340.051 741.48V761.118H337.346V752.174C335.911 753.609 334.138 754.326 332.027 754.326C330.039 754.326 328.512 753.557 327.446 752.021C326.38 750.484 325.847 748.517 325.847 746.12C325.847 744.481 326.134 743.016 326.708 741.725C327.303 740.435 328.143 739.421 329.229 738.683C330.336 737.945 331.648 737.577 333.165 737.577C333.984 737.577 334.743 737.679 335.44 737.884C336.157 738.089 336.936 738.396 337.776 738.806L338.022 737.915H340.728ZM332.457 751.836C333.441 751.836 334.312 751.642 335.071 751.253C335.85 750.843 336.608 750.249 337.346 749.47V740.65C336.034 740.199 334.733 739.974 333.441 739.974C331.945 739.974 330.787 740.547 329.967 741.695C329.168 742.822 328.768 744.276 328.768 746.059C328.768 747.759 329.055 749.152 329.629 750.238C330.223 751.304 331.166 751.836 332.457 751.836Z" fill="black"/>
<path d="M459.741 753.988L454.668 747.349L449.749 753.988H446.767L453.223 745.506L447.443 737.945H450.702L455.099 743.692L459.341 737.945H462.324L456.544 745.567L463 753.988H459.741Z" fill="black"/>
<path d="M-285.672 795.333C-287.168 795.333 -288.48 794.974 -289.607 794.257C-290.735 793.54 -291.596 792.557 -292.19 791.307C-292.784 790.037 -293.082 788.603 -293.082 787.005C-293.082 785.386 -292.784 783.941 -292.19 782.671C-291.596 781.38 -290.735 780.377 -289.607 779.659C-288.48 778.922 -287.158 778.553 -285.641 778.553C-284.576 778.553 -283.643 778.666 -282.844 778.891C-282.044 779.116 -281.286 779.526 -280.569 780.12V782.733H-280.692C-281.429 782.118 -282.198 781.678 -282.997 781.411C-283.776 781.145 -284.668 781.012 -285.672 781.012C-287.127 781.012 -288.255 781.575 -289.054 782.702C-289.833 783.829 -290.222 785.273 -290.222 787.035C-290.222 788.736 -289.833 790.139 -289.054 791.246C-288.255 792.331 -287.138 792.874 -285.703 792.874C-284.637 792.874 -283.684 792.71 -282.844 792.383C-282.003 792.034 -281.173 791.491 -280.353 790.754H-280.23V793.366C-280.989 794.083 -281.809 794.595 -282.69 794.903C-283.551 795.189 -284.545 795.333 -285.672 795.333Z" fill="black"/>
<path d="M-118.499 795.333C-119.995 795.333 -121.307 794.974 -122.434 794.257C-123.562 793.54 -124.422 792.557 -125.017 791.307C-125.611 790.037 -125.908 788.603 -125.908 787.005C-125.908 785.386 -125.611 783.941 -125.017 782.671C-124.422 781.38 -123.562 780.377 -122.434 779.659C-121.307 778.922 -119.985 778.553 -118.468 778.553C-117.402 778.553 -116.47 778.666 -115.67 778.891C-114.871 779.116 -114.113 779.526 -113.395 780.12V782.733H-113.518C-114.256 782.118 -115.025 781.678 -115.824 781.411C-116.603 781.145 -117.495 781.012 -118.499 781.012C-119.954 781.012 -121.082 781.575 -121.881 782.702C-122.66 783.829 -123.049 785.273 -123.049 787.035C-123.049 788.736 -122.66 790.139 -121.881 791.246C-121.082 792.331 -119.964 792.874 -118.53 792.874C-117.464 792.874 -116.511 792.71 -115.67 792.383C-114.83 792.034 -114 791.491 -113.18 790.754H-113.057V793.366C-113.816 794.083 -114.635 794.595 -115.517 794.903C-116.378 795.189 -117.372 795.333 -118.499 795.333Z" fill="black"/>
<path d="M0.886963 778.891L0.210571 782.456V802.094H-2.49493V793.151C-3.92968 794.585 -5.7026 795.302 -7.81372 795.302C-9.80186 795.302 -11.3289 794.534 -12.3947 792.997C-13.4605 791.461 -13.9934 789.494 -13.9934 787.097C-13.9934 785.458 -13.7064 783.993 -13.1325 782.702C-12.5381 781.411 -11.6978 780.397 -10.6115 779.659C-9.50468 778.922 -8.19291 778.553 -6.67618 778.553C-5.85632 778.553 -5.09797 778.656 -4.40109 778.86C-3.68372 779.065 -2.90486 779.373 -2.06451 779.782L-1.81857 778.891H0.886963ZM-7.3833 792.813C-6.39948 792.813 -5.52838 792.618 -4.77002 792.229C-3.99116 791.819 -3.2328 791.225 -2.49493 790.447V781.626C-3.8067 781.176 -5.10821 780.95 -6.39948 780.95C-7.89571 780.95 -9.05377 781.524 -9.87363 782.671C-10.673 783.798 -11.0727 785.253 -11.0727 787.035C-11.0727 788.736 -10.7857 790.129 -10.2118 791.215C-9.61743 792.28 -8.67457 792.813 -7.3833 792.813Z" fill="black"/>
<path d="M389.554 778.922L383.62 794.964H379.931L373.997 778.922H376.764L381.837 792.782L386.91 778.922H389.554Z" fill="black"/>
<path d="M-334.443 860.875L-340.377 876.917H-344.066L-350 860.875H-347.233L-342.16 874.735L-337.087 860.875H-334.443Z" fill="black"/>
<path d="M-119.352 860.875L-125.286 876.917H-128.975L-134.909 860.875H-132.142L-127.069 874.735L-121.996 860.875H-119.352Z" fill="black"/>
<path d="M-120.06 918.262C-121.556 918.262 -122.868 917.904 -123.996 917.187C-125.123 916.47 -125.984 915.486 -126.578 914.236C-127.172 912.966 -127.47 911.532 -127.47 909.934C-127.47 908.315 -127.172 906.871 -126.578 905.601C-125.984 904.31 -125.123 903.306 -123.996 902.589C-122.868 901.851 -121.546 901.482 -120.029 901.482C-118.964 901.482 -118.031 901.595 -117.232 901.821C-116.432 902.046 -115.674 902.456 -114.957 903.05V905.662H-115.08C-115.817 905.047 -116.586 904.607 -117.385 904.341C-118.164 904.074 -119.056 903.941 -120.06 903.941C-121.515 903.941 -122.643 904.504 -123.442 905.631C-124.221 906.758 -124.61 908.203 -124.61 909.965C-124.61 911.665 -124.221 913.069 -123.442 914.175C-122.643 915.261 -121.526 915.804 -120.091 915.804C-119.025 915.804 -118.072 915.64 -117.232 915.312C-116.391 914.964 -115.561 914.421 -114.741 913.683H-114.618V916.296C-115.377 917.013 -116.197 917.525 -117.078 917.832C-117.939 918.119 -118.933 918.262 -120.06 918.262Z" fill="black"/>
<path d="M-0.674286 901.821L-1.35068 905.386V925.024H-4.05618V916.08C-5.49093 917.515 -7.26385 918.232 -9.37497 918.232C-11.3631 918.232 -12.8901 917.463 -13.9559 915.927C-15.0217 914.39 -15.5546 912.423 -15.5546 910.026C-15.5546 908.387 -15.2677 906.922 -14.6938 905.631C-14.0994 904.341 -13.259 903.326 -12.1727 902.589C-11.0659 901.851 -9.75416 901.482 -8.23743 901.482C-7.41757 901.482 -6.65922 901.585 -5.96234 901.79C-5.24497 901.995 -4.46611 902.302 -3.62576 902.712L-3.37982 901.821H-0.674286ZM-8.94455 915.742C-7.96073 915.742 -7.08963 915.548 -6.33127 915.158C-5.55241 914.749 -4.79405 914.154 -4.05618 913.376V904.556C-5.36795 904.105 -6.66945 903.88 -7.96072 903.88C-9.45696 903.88 -10.615 904.453 -11.4349 905.601C-12.2342 906.727 -12.6339 908.182 -12.6339 909.965C-12.6339 911.665 -12.347 913.058 -11.7731 914.144C-11.1787 915.21 -10.2358 915.742 -8.94455 915.742Z" fill="black"/>
<path d="M125.449 914.206C125.449 915.435 125.265 916.705 124.896 918.017C124.527 919.328 123.871 920.823 122.928 922.503H120.222C120.899 921.397 121.391 920.352 121.698 919.369C122.006 918.406 122.19 917.556 122.252 916.818C122.334 916.08 122.375 915.21 122.375 914.206H125.449Z" fill="black"/>
<path d="M152.905 901.851L146.971 917.894H143.282L137.348 901.851H140.115L145.188 915.712L150.261 901.851H152.905Z" fill="black"/>
<path d="M353.938 901.821L353.262 905.386V925.024H350.556V916.08C349.122 917.515 347.349 918.232 345.238 918.232C343.249 918.232 341.722 917.463 340.657 915.927C339.591 914.39 339.058 912.423 339.058 910.026C339.058 908.387 339.345 906.922 339.919 905.631C340.513 904.341 341.354 903.326 342.44 902.589C343.547 901.851 344.858 901.482 346.375 901.482C347.195 901.482 347.953 901.585 348.65 901.79C349.368 901.995 350.146 902.302 350.987 902.712L351.233 901.821H353.938ZM345.668 915.742C346.652 915.742 347.523 915.548 348.281 915.158C349.06 914.749 349.819 914.154 350.556 913.376V904.556C349.245 904.105 347.943 903.88 346.652 903.88C345.156 903.88 343.998 904.453 343.178 905.601C342.378 906.727 341.979 908.182 341.979 909.965C341.979 911.665 342.266 913.058 342.839 914.144C343.434 915.21 344.377 915.742 345.668 915.742Z" fill="black"/>
<path d="M70.9328 942.797L70.2564 946.362V966H67.5509V957.057C66.1161 958.491 64.3432 959.208 62.2321 959.208C60.2439 959.208 58.717 958.44 57.6512 956.903C56.5853 955.367 56.0524 953.4 56.0524 951.003C56.0524 949.364 56.3394 947.899 56.9133 946.608C57.5077 945.317 58.348 944.303 59.4343 943.565C60.5411 942.828 61.8529 942.459 63.3696 942.459C64.1895 942.459 64.9478 942.561 65.6447 942.766C66.3621 942.971 67.1409 943.278 67.9813 943.688L68.2272 942.797H70.9328ZM62.6625 956.719C63.6463 956.719 64.5174 956.524 65.2758 956.135C66.0546 955.725 66.813 955.131 67.5509 954.352V945.532C66.2391 945.081 64.9376 944.856 63.6463 944.856C62.1501 944.856 60.992 945.43 60.1722 946.577C59.3728 947.704 58.9731 949.159 58.9731 950.941C58.9731 952.642 59.2601 954.035 59.834 955.121C60.4284 956.186 61.3712 956.719 62.6625 956.719Z" fill="black"/>
<path d="M145.549 942.828L139.615 958.87H135.926L129.992 942.828H132.759L137.832 956.688L142.905 942.828H145.549Z" fill="black"/>
</svg>
