<svg width="267" height="164" viewBox="0 0 267 164" fill="none" xmlns="http://www.w3.org/2000/svg">
<mask id="path-1-outside-1" maskUnits="userSpaceOnUse" x="0" y="0" width="267" height="79" fill="black">
<rect fill="white" width="267" height="79"/>
<path d="M13.8646 1.94186H8.16837V1H13.8646V1.94186Z"/>
<path d="M44.4264 1.94186H38.7302V1H44.4264V1.94186Z"/>
<path d="M59.7074 1.94186H54.0112V1H59.7074V1.94186Z"/>
<path d="M74.9883 1.94186H69.2921V1H74.9883V1.94186Z"/>
<path d="M113.191 1.94186H107.494V1H113.191V1.94186Z"/>
<path d="M136.112 1.94186H130.416V1H136.112V1.94186Z"/>
<path d="M143.753 1.94186H138.056V1H143.753V1.94186Z"/>
<path d="M3.84499 18.386H2.91943V6.82168H3.84499V18.386Z"/>
<path d="M16.2809 6.82168H17.3183L21.0951 16.6832H20.0577L16.2809 6.82168Z"/>
<path d="M34.4069 18.386H33.4813V6.82168H34.4069V18.386Z"/>
<path d="M47.6255 12.2171C47.6255 11.6225 47.671 11.0632 47.7621 10.5392C47.8574 10.0153 47.9837 9.53084 48.1411 9.08589C48.2984 8.63679 48.4786 8.2272 48.6815 7.8571C48.8885 7.48701 49.1039 7.1585 49.3275 6.87158C49.5553 6.58465 49.783 6.33931 50.0108 6.13555C50.2386 5.93179 50.456 5.7717 50.663 5.65526L50.9053 6.41624C50.6485 6.61168 50.3918 6.87782 50.135 7.21464C49.8824 7.55147 49.6547 7.96106 49.4517 8.44343C49.253 8.92164 49.0894 9.4747 48.961 10.1026C48.8368 10.7264 48.7747 11.427 48.7747 12.2046V12.292C48.7747 13.0696 48.8368 13.7723 48.961 14.4003C49.0894 15.0282 49.253 15.5833 49.4517 16.0657C49.6547 16.548 49.8824 16.9597 50.135 17.3007C50.3918 17.6458 50.6485 17.9224 50.9053 18.1303L50.663 18.8351C50.456 18.7187 50.2365 18.5586 50.0046 18.3548C49.7768 18.1552 49.5491 17.9099 49.3213 17.6188C49.0977 17.3319 48.8823 17.0034 48.6753 16.6333C48.4724 16.2673 48.2922 15.8619 48.1349 15.417C47.9816 14.9679 47.8574 14.4813 47.7621 13.9574C47.671 13.4334 47.6255 12.8741 47.6255 12.2795V12.2171Z"/>
<path d="M59.7074 16.8454H54.0112V15.9035H59.7074V16.8454Z"/>
<path d="M64.9687 18.386H64.0432V6.82168H64.9687V18.386Z"/>
<path d="M80.2497 18.386H79.3241V6.82168H80.2497V18.386Z"/>
<path d="M101.109 12.2171C101.109 11.6225 101.154 11.0632 101.245 10.5392C101.341 10.0153 101.467 9.53084 101.624 9.08589C101.782 8.63679 101.962 8.2272 102.165 7.8571C102.372 7.48701 102.587 7.1585 102.811 6.87158C103.039 6.58465 103.266 6.33931 103.494 6.13555C103.722 5.93179 103.939 5.7717 104.146 5.65526L104.389 6.41624C104.132 6.61168 103.875 6.87782 103.618 7.21464C103.366 7.55147 103.138 7.96106 102.935 8.44343C102.736 8.92164 102.573 9.4747 102.444 10.1026C102.32 10.7264 102.258 11.427 102.258 12.2046V12.292C102.258 13.0696 102.32 13.7723 102.444 14.4003C102.573 15.0282 102.736 15.5833 102.935 16.0657C103.138 16.548 103.366 16.9597 103.618 17.3007C103.875 17.6458 104.132 17.9224 104.389 18.1303L104.146 18.8351C103.939 18.7187 103.72 18.5586 103.488 18.3548C103.26 18.1552 103.032 17.9099 102.805 17.6188C102.581 17.3319 102.366 17.0034 102.159 16.6333C101.956 16.2673 101.775 15.8619 101.618 15.417C101.465 14.9679 101.341 14.4813 101.245 13.9574C101.154 13.4334 101.109 12.8741 101.109 12.2795V12.2171Z"/>
<path d="M113.191 16.8454H107.494V15.9035H113.191V16.8454Z"/>
<path d="M119.446 12.2795C119.446 12.8741 119.398 13.4334 119.303 13.9574C119.212 14.4813 119.088 14.9679 118.93 15.417C118.773 15.8619 118.591 16.2673 118.384 16.6333C118.181 17.0034 117.965 17.3319 117.738 17.6188C117.514 17.9099 117.286 18.1552 117.054 18.3548C116.827 18.5586 116.609 18.7187 116.402 18.8351L116.16 18.1303C116.417 17.939 116.671 17.6708 116.924 17.3256C117.181 16.9847 117.408 16.5709 117.607 16.0844C117.81 15.5979 117.974 15.0386 118.098 14.4065C118.226 13.7744 118.29 13.0696 118.29 12.292V12.2046C118.29 11.427 118.224 10.7222 118.092 10.0901C117.959 9.45391 117.787 8.89253 117.576 8.40601C117.369 7.91532 117.139 7.49949 116.887 7.1585C116.638 6.81752 116.396 6.55139 116.16 6.3601L116.402 5.65526C116.609 5.7717 116.827 5.93179 117.054 6.13555C117.286 6.33931 117.514 6.58465 117.738 6.87158C117.965 7.1585 118.181 7.48701 118.384 7.8571C118.591 8.2272 118.773 8.63679 118.93 9.08589C119.088 9.53084 119.212 10.0153 119.303 10.5392C119.398 11.0632 119.446 11.6225 119.446 12.2171V12.2795Z"/>
<path d="M124.409 16.6832H123.378L127.155 6.82168H128.18L124.409 16.6832Z"/>
<path d="M143.753 16.8454H138.056V15.9035H143.753V16.8454Z"/>
<path d="M149.014 18.386H148.088V6.82168H149.014V18.386Z"/>
<path d="M3.84499 33.2895H2.91943V21.7252H3.84499V33.2895Z"/>
<path d="M23.9214 21.7252H24.9588L28.7355 31.5867H27.6982L23.9214 21.7252Z"/>
<path d="M34.4069 33.2895H33.4813V21.7252H34.4069V33.2895Z"/>
<path d="M49.6878 33.2895H48.7622V21.7252H49.6878V33.2895Z"/>
<path d="M59.7074 31.7489H54.0112V30.807H59.7074V31.7489Z"/>
<path d="M64.9687 33.2895H64.0432V21.7252H64.9687V33.2895Z"/>
<path d="M80.2497 33.2895H79.3241V21.7252H80.2497V33.2895Z"/>
<path d="M97.9097 31.7489H92.2135V30.807H97.9097V31.7489Z"/>
<path d="M105.55 31.7489H99.854V30.807H105.55V31.7489Z"/>
<path d="M113.191 31.7489H107.494V30.807H113.191V31.7489Z"/>
<path d="M118.452 33.2895H117.526V21.7252H118.452V33.2895Z"/>
<path d="M133.733 33.2895H132.807V21.7252H133.733V33.2895Z"/>
<path d="M143.753 31.7489H138.056V30.807H143.753V31.7489Z"/>
<path d="M159.033 31.7489H153.337V30.807H159.033V31.7489Z"/>
<path d="M174.314 31.7489H168.618V30.807H174.314V31.7489Z"/>
<path d="M181.955 31.7489H176.259V30.807H181.955V31.7489Z"/>
<path d="M197.236 31.7489H191.54V30.807H197.236V31.7489Z"/>
<path d="M204.876 31.7489H199.18V30.807H204.876V31.7489Z"/>
<path d="M212.517 31.7489H206.821V30.807H212.517V31.7489Z"/>
<path d="M220.157 31.7489H214.461V30.807H220.157V31.7489Z"/>
<path d="M227.798 31.7489H222.101V30.807H227.798V31.7489Z"/>
<path d="M258.36 31.7489H252.663V30.807H258.36V31.7489Z"/>
<path d="M266 31.7489H260.304V30.807H266V31.7489Z"/>
<path d="M3.84499 48.193H2.91943V36.6287H3.84499V48.193Z"/>
<path d="M17.9271 44.962C17.9271 44.8372 17.9457 44.7208 17.983 44.6127C18.0244 44.5046 18.0823 44.411 18.1569 44.332C18.2314 44.2488 18.3246 44.1844 18.4364 44.1386C18.5482 44.0929 18.6787 44.07 18.8278 44.07C18.9768 44.07 19.1073 44.0929 19.2191 44.1386C19.3351 44.1844 19.4303 44.2488 19.5048 44.332C19.5835 44.411 19.6415 44.5046 19.6788 44.6127C19.7202 44.7208 19.7409 44.8372 19.7409 44.962C19.7409 45.0826 19.7202 45.1969 19.6788 45.305C19.6415 45.409 19.5835 45.5005 19.5048 45.5795C19.4303 45.6585 19.3351 45.7188 19.2191 45.7604C19.1073 45.8061 18.9768 45.829 18.8278 45.829C18.6787 45.829 18.5482 45.8061 18.4364 45.7604C18.3246 45.7188 18.2314 45.6585 18.1569 45.5795C18.0823 45.5005 18.0244 45.409 17.983 45.305C17.9457 45.1969 17.9271 45.0826 17.9271 44.962Z"/>
<path d="M35.1771 38.1319H34.2453L32.7048 36.4727H34.0901L35.1771 38.1319Z"/>
<path d="M49.6878 48.193H48.7622V36.6287H49.6878V48.193Z"/>
<path d="M64.9687 48.193H64.0432V36.6287H64.9687V48.193Z"/>
<path d="M80.2497 48.193H79.3241V36.6287H80.2497V48.193Z"/>
<path d="M86.2067 46.4902H85.1756L88.9523 36.6287H89.9773L86.2067 46.4902Z"/>
<path d="M103.171 48.193H102.246V36.6287H103.171V48.193Z"/>
<path d="M118.452 48.193H117.526V36.6287H118.452V48.193Z"/>
<path d="M143.753 46.6523H138.056V45.7105H143.753V46.6523Z"/>
<path d="M149.014 48.193H148.088V36.6287H149.014V48.193Z"/>
<path d="M164.071 36.822L163.941 39.1174H163.084L163.09 36.9218V36.1297H164.071V36.822Z"/>
<path d="M174.314 46.6523H168.618V45.7105H174.314V46.6523Z"/>
<path d="M181.955 46.6523H176.259V45.7105H181.955V46.6523Z"/>
<path d="M185.533 46.4902H184.502L188.278 36.6287H189.303L185.533 46.4902Z"/>
<path d="M204.876 46.6523H199.18V45.7105H204.876V46.6523Z"/>
<path d="M214.933 36.6287H215.97L219.747 46.4902H218.71L214.933 36.6287Z"/>
<path d="M230.214 36.6287H231.251L235.028 46.4902H233.991L230.214 36.6287Z"/>
<path d="M246.657 46.4902H245.625L249.402 36.6287H250.427L246.657 46.4902Z"/>
<path d="M261.938 46.4902H260.906L264.683 36.6287H265.708L261.938 46.4902Z"/>
<path d="M3.84499 63.0965H2.91943V51.5322H3.84499V63.0965Z"/>
<path d="M19.1259 63.0965H18.2004V51.5322H19.1259V63.0965Z"/>
<path d="M23.9214 51.5322H24.9588L28.7355 61.3937H27.6982L23.9214 51.5322Z"/>
<path d="M49.6878 63.0965H48.7622V51.5322H49.6878V63.0965Z"/>
<path d="M64.9687 63.0965H64.0432V51.5322H64.9687V63.0965Z"/>
<path d="M93.7727 56.4785L93.4435 56.5845L93.7727 56.6968L97.5743 58.1689V59.3914L92.3067 57.0274V56.1167L97.5743 53.759V54.9815L93.7727 56.4785Z"/>
<path d="M103.171 63.0965H102.246V51.5322H103.171V63.0965Z"/>
<path d="M118.452 63.0965H117.526V51.5322H118.452V63.0965Z"/>
<path d="M133.733 63.0965H132.807V51.5322H133.733V63.0965Z"/>
<path d="M149.014 63.0965H148.088V51.5322H149.014V63.0965Z"/>
<path d="M164.295 63.0965H163.369V51.5322H164.295V63.0965Z"/>
<path d="M179.576 63.0965H178.65V51.5322H179.576V63.0965Z"/>
<path d="M192.794 56.9276C192.794 56.333 192.84 55.7737 192.931 55.2497C193.026 54.7258 193.153 54.2413 193.31 53.7964C193.467 53.3473 193.647 52.9377 193.85 52.5676C194.057 52.1975 194.273 51.869 194.496 51.5821C194.724 51.2951 194.952 51.0498 195.18 50.846C195.407 50.6423 195.625 50.4822 195.832 50.3657L196.074 51.1267C195.817 51.3222 195.561 51.5883 195.304 51.9251C195.051 52.2619 194.824 52.6715 194.621 53.1539C194.422 53.6321 194.258 54.1852 194.13 54.8131C194.006 55.4368 193.944 56.1375 193.944 56.9151V57.0025C193.944 57.7801 194.006 58.4828 194.13 59.1107C194.258 59.7386 194.422 60.2938 194.621 60.7762C194.824 61.2585 195.051 61.6702 195.304 62.0112C195.561 62.3563 195.817 62.6329 196.074 62.8408L195.832 63.5456C195.625 63.4292 195.405 63.2691 195.173 63.0653C194.946 62.8657 194.718 62.6204 194.49 62.3293C194.267 62.0424 194.051 61.7139 193.844 61.3438C193.641 60.9778 193.461 60.5724 193.304 60.1274C193.151 59.6783 193.026 59.1918 192.931 58.6679C192.84 58.1439 192.794 57.5846 192.794 56.99V56.9276Z"/>
<path d="M204.876 61.5558H199.18V60.614H204.876V61.5558Z"/>
<path d="M211.132 56.99C211.132 57.5846 211.084 58.1439 210.989 58.6679C210.898 59.1918 210.773 59.6783 210.616 60.1274C210.459 60.5724 210.276 60.9778 210.069 61.3438C209.866 61.7139 209.651 62.0424 209.423 62.3293C209.2 62.6204 208.972 62.8657 208.74 63.0653C208.512 63.2691 208.295 63.4292 208.088 63.5456L207.845 62.8408C208.102 62.6495 208.357 62.3813 208.61 62.0361C208.866 61.6951 209.094 61.2814 209.293 60.7949C209.496 60.3083 209.659 59.749 209.784 59.117C209.912 58.4849 209.976 57.7801 209.976 57.0025V56.9151C209.976 56.1375 209.91 55.4327 209.777 54.8006C209.645 54.1644 209.473 53.603 209.262 53.1165C209.055 52.6258 208.825 52.21 208.572 51.869C208.324 51.528 208.082 51.2619 207.845 51.0706L208.088 50.3657C208.295 50.4822 208.512 50.6423 208.74 50.846C208.972 51.0498 209.2 51.2951 209.423 51.5821C209.651 51.869 209.866 52.1975 210.069 52.5676C210.276 52.9377 210.459 53.3473 210.616 53.7964C210.773 54.2413 210.898 54.7258 210.989 55.2497C211.084 55.7737 211.132 56.333 211.132 56.9276V56.99Z"/>
<path d="M222.574 51.5322H223.611L227.388 61.3937H226.35L222.574 51.5322Z"/>
<path d="M240.209 58.7552L242.346 51.5322H243.569L240.718 60.614H239.718L236.861 51.5322H238.091L240.209 58.7552Z"/>
<path d="M254.297 61.3937H253.266L257.043 51.5322H258.068L254.297 61.3937Z"/>
<path d="M1 66.4357H2.03736L5.81412 76.2972H4.77675L1 66.4357Z"/>
<path d="M13.8646 76.4593H8.16837V75.5175H13.8646V76.4593Z"/>
<path d="M19.1259 78H18.2004V66.4357H19.1259V78Z"/>
<path d="M31.5619 66.4357H32.5992L36.376 76.2972H35.3386L31.5619 66.4357Z"/>
<path d="M44.4264 76.4593H38.7302V75.5175H44.4264V76.4593Z"/>
<path d="M49.6878 78H48.7622V66.4357H49.6878V78Z"/>
<path d="M59.7074 76.4593H54.0112V75.5175H59.7074V76.4593Z"/>
<path d="M64.9687 78H64.0432V66.4357H64.9687V78Z"/>
<path d="M74.9883 76.4593H69.2921V75.5175H74.9883V76.4593Z"/>
<path d="M80.2497 78H79.3241V66.4357H80.2497V78Z"/>
<path d="M85.0451 66.4357H86.0825L89.8593 76.2972H88.8219L85.0451 66.4357Z"/>
<path d="M97.9097 76.4593H92.2135V75.5175H97.9097V76.4593Z"/>
<path d="M103.171 78H102.246V66.4357H103.171V78Z"/>
<path d="M113.191 76.4593H107.494V75.5175H113.191V76.4593Z"/>
<path d="M118.452 78H117.526V66.4357H118.452V78Z"/>
<path d="M128.472 76.4593H122.775V75.5175H128.472V76.4593Z"/>
<path d="M133.733 78H132.807V66.4357H133.733V78Z"/>
<path d="M149.014 78H148.088V66.4357H149.014V78Z"/>
<path d="M159.033 76.4593H153.337V75.5175H159.033V76.4593Z"/>
<path d="M164.295 78H163.369V66.4357H164.295V78Z"/>
<path d="M184.371 66.4357H185.409L189.185 76.2972H188.148L184.371 66.4357Z"/>
<path d="M197.236 76.4593H191.54V75.5175H197.236V76.4593Z"/>
<path d="M204.876 76.4593H199.18V75.5175H204.876V76.4593Z"/>
<path d="M212.517 76.4593H206.821V75.5175H212.517V76.4593Z"/>
<path d="M216.095 76.2972H215.064L218.84 66.4357H219.865L216.095 76.2972Z"/>
<path d="M230.214 66.4357H231.251L235.028 76.2972H233.991L230.214 66.4357Z"/>
<path d="M243.079 76.4593H237.382V75.5175H243.079V76.4593Z"/>
<path d="M246.657 76.2972H245.625L249.402 66.4357H250.427L246.657 76.2972Z"/>
</mask>
<path d="M13.8646 1.94186H8.16837V1H13.8646V1.94186Z" fill="black"/>
<path d="M44.4264 1.94186H38.7302V1H44.4264V1.94186Z" fill="black"/>
<path d="M59.7074 1.94186H54.0112V1H59.7074V1.94186Z" fill="black"/>
<path d="M74.9883 1.94186H69.2921V1H74.9883V1.94186Z" fill="black"/>
<path d="M113.191 1.94186H107.494V1H113.191V1.94186Z" fill="black"/>
<path d="M136.112 1.94186H130.416V1H136.112V1.94186Z" fill="black"/>
<path d="M143.753 1.94186H138.056V1H143.753V1.94186Z" fill="black"/>
<path d="M3.84499 18.386H2.91943V6.82168H3.84499V18.386Z" fill="black"/>
<path d="M16.2809 6.82168H17.3183L21.0951 16.6832H20.0577L16.2809 6.82168Z" fill="black"/>
<path d="M34.4069 18.386H33.4813V6.82168H34.4069V18.386Z" fill="black"/>
<path d="M47.6255 12.2171C47.6255 11.6225 47.671 11.0632 47.7621 10.5392C47.8574 10.0153 47.9837 9.53084 48.1411 9.08589C48.2984 8.63679 48.4786 8.2272 48.6815 7.8571C48.8885 7.48701 49.1039 7.1585 49.3275 6.87158C49.5553 6.58465 49.783 6.33931 50.0108 6.13555C50.2386 5.93179 50.456 5.7717 50.663 5.65526L50.9053 6.41624C50.6485 6.61168 50.3918 6.87782 50.135 7.21464C49.8824 7.55147 49.6547 7.96106 49.4517 8.44343C49.253 8.92164 49.0894 9.4747 48.961 10.1026C48.8368 10.7264 48.7747 11.427 48.7747 12.2046V12.292C48.7747 13.0696 48.8368 13.7723 48.961 14.4003C49.0894 15.0282 49.253 15.5833 49.4517 16.0657C49.6547 16.548 49.8824 16.9597 50.135 17.3007C50.3918 17.6458 50.6485 17.9224 50.9053 18.1303L50.663 18.8351C50.456 18.7187 50.2365 18.5586 50.0046 18.3548C49.7768 18.1552 49.5491 17.9099 49.3213 17.6188C49.0977 17.3319 48.8823 17.0034 48.6753 16.6333C48.4724 16.2673 48.2922 15.8619 48.1349 15.417C47.9816 14.9679 47.8574 14.4813 47.7621 13.9574C47.671 13.4334 47.6255 12.8741 47.6255 12.2795V12.2171Z" fill="black"/>
<path d="M59.7074 16.8454H54.0112V15.9035H59.7074V16.8454Z" fill="black"/>
<path d="M64.9687 18.386H64.0432V6.82168H64.9687V18.386Z" fill="black"/>
<path d="M80.2497 18.386H79.3241V6.82168H80.2497V18.386Z" fill="black"/>
<path d="M101.109 12.2171C101.109 11.6225 101.154 11.0632 101.245 10.5392C101.341 10.0153 101.467 9.53084 101.624 9.08589C101.782 8.63679 101.962 8.2272 102.165 7.8571C102.372 7.48701 102.587 7.1585 102.811 6.87158C103.039 6.58465 103.266 6.33931 103.494 6.13555C103.722 5.93179 103.939 5.7717 104.146 5.65526L104.389 6.41624C104.132 6.61168 103.875 6.87782 103.618 7.21464C103.366 7.55147 103.138 7.96106 102.935 8.44343C102.736 8.92164 102.573 9.4747 102.444 10.1026C102.32 10.7264 102.258 11.427 102.258 12.2046V12.292C102.258 13.0696 102.32 13.7723 102.444 14.4003C102.573 15.0282 102.736 15.5833 102.935 16.0657C103.138 16.548 103.366 16.9597 103.618 17.3007C103.875 17.6458 104.132 17.9224 104.389 18.1303L104.146 18.8351C103.939 18.7187 103.72 18.5586 103.488 18.3548C103.26 18.1552 103.032 17.9099 102.805 17.6188C102.581 17.3319 102.366 17.0034 102.159 16.6333C101.956 16.2673 101.775 15.8619 101.618 15.417C101.465 14.9679 101.341 14.4813 101.245 13.9574C101.154 13.4334 101.109 12.8741 101.109 12.2795V12.2171Z" fill="black"/>
<path d="M113.191 16.8454H107.494V15.9035H113.191V16.8454Z" fill="black"/>
<path d="M119.446 12.2795C119.446 12.8741 119.398 13.4334 119.303 13.9574C119.212 14.4813 119.088 14.9679 118.93 15.417C118.773 15.8619 118.591 16.2673 118.384 16.6333C118.181 17.0034 117.965 17.3319 117.738 17.6188C117.514 17.9099 117.286 18.1552 117.054 18.3548C116.827 18.5586 116.609 18.7187 116.402 18.8351L116.16 18.1303C116.417 17.939 116.671 17.6708 116.924 17.3256C117.181 16.9847 117.408 16.5709 117.607 16.0844C117.81 15.5979 117.974 15.0386 118.098 14.4065C118.226 13.7744 118.29 13.0696 118.29 12.292V12.2046C118.29 11.427 118.224 10.7222 118.092 10.0901C117.959 9.45391 117.787 8.89253 117.576 8.40601C117.369 7.91532 117.139 7.49949 116.887 7.1585C116.638 6.81752 116.396 6.55139 116.16 6.3601L116.402 5.65526C116.609 5.7717 116.827 5.93179 117.054 6.13555C117.286 6.33931 117.514 6.58465 117.738 6.87158C117.965 7.1585 118.181 7.48701 118.384 7.8571C118.591 8.2272 118.773 8.63679 118.93 9.08589C119.088 9.53084 119.212 10.0153 119.303 10.5392C119.398 11.0632 119.446 11.6225 119.446 12.2171V12.2795Z" fill="black"/>
<path d="M124.409 16.6832H123.378L127.155 6.82168H128.18L124.409 16.6832Z" fill="black"/>
<path d="M143.753 16.8454H138.056V15.9035H143.753V16.8454Z" fill="black"/>
<path d="M149.014 18.386H148.088V6.82168H149.014V18.386Z" fill="black"/>
<path d="M3.84499 33.2895H2.91943V21.7252H3.84499V33.2895Z" fill="black"/>
<path d="M23.9214 21.7252H24.9588L28.7355 31.5867H27.6982L23.9214 21.7252Z" fill="black"/>
<path d="M34.4069 33.2895H33.4813V21.7252H34.4069V33.2895Z" fill="black"/>
<path d="M49.6878 33.2895H48.7622V21.7252H49.6878V33.2895Z" fill="black"/>
<path d="M59.7074 31.7489H54.0112V30.807H59.7074V31.7489Z" fill="black"/>
<path d="M64.9687 33.2895H64.0432V21.7252H64.9687V33.2895Z" fill="black"/>
<path d="M80.2497 33.2895H79.3241V21.7252H80.2497V33.2895Z" fill="black"/>
<path d="M97.9097 31.7489H92.2135V30.807H97.9097V31.7489Z" fill="black"/>
<path d="M105.55 31.7489H99.854V30.807H105.55V31.7489Z" fill="black"/>
<path d="M113.191 31.7489H107.494V30.807H113.191V31.7489Z" fill="black"/>
<path d="M118.452 33.2895H117.526V21.7252H118.452V33.2895Z" fill="black"/>
<path d="M133.733 33.2895H132.807V21.7252H133.733V33.2895Z" fill="black"/>
<path d="M143.753 31.7489H138.056V30.807H143.753V31.7489Z" fill="black"/>
<path d="M159.033 31.7489H153.337V30.807H159.033V31.7489Z" fill="black"/>
<path d="M174.314 31.7489H168.618V30.807H174.314V31.7489Z" fill="black"/>
<path d="M181.955 31.7489H176.259V30.807H181.955V31.7489Z" fill="black"/>
<path d="M197.236 31.7489H191.54V30.807H197.236V31.7489Z" fill="black"/>
<path d="M204.876 31.7489H199.18V30.807H204.876V31.7489Z" fill="black"/>
<path d="M212.517 31.7489H206.821V30.807H212.517V31.7489Z" fill="black"/>
<path d="M220.157 31.7489H214.461V30.807H220.157V31.7489Z" fill="black"/>
<path d="M227.798 31.7489H222.101V30.807H227.798V31.7489Z" fill="black"/>
<path d="M258.36 31.7489H252.663V30.807H258.36V31.7489Z" fill="black"/>
<path d="M266 31.7489H260.304V30.807H266V31.7489Z" fill="black"/>
<path d="M3.84499 48.193H2.91943V36.6287H3.84499V48.193Z" fill="black"/>
<path d="M17.9271 44.962C17.9271 44.8372 17.9457 44.7208 17.983 44.6127C18.0244 44.5046 18.0823 44.411 18.1569 44.332C18.2314 44.2488 18.3246 44.1844 18.4364 44.1386C18.5482 44.0929 18.6787 44.07 18.8278 44.07C18.9768 44.07 19.1073 44.0929 19.2191 44.1386C19.3351 44.1844 19.4303 44.2488 19.5048 44.332C19.5835 44.411 19.6415 44.5046 19.6788 44.6127C19.7202 44.7208 19.7409 44.8372 19.7409 44.962C19.7409 45.0826 19.7202 45.1969 19.6788 45.305C19.6415 45.409 19.5835 45.5005 19.5048 45.5795C19.4303 45.6585 19.3351 45.7188 19.2191 45.7604C19.1073 45.8061 18.9768 45.829 18.8278 45.829C18.6787 45.829 18.5482 45.8061 18.4364 45.7604C18.3246 45.7188 18.2314 45.6585 18.1569 45.5795C18.0823 45.5005 18.0244 45.409 17.983 45.305C17.9457 45.1969 17.9271 45.0826 17.9271 44.962Z" fill="black"/>
<path d="M35.1771 38.1319H34.2453L32.7048 36.4727H34.0901L35.1771 38.1319Z" fill="black"/>
<path d="M49.6878 48.193H48.7622V36.6287H49.6878V48.193Z" fill="black"/>
<path d="M64.9687 48.193H64.0432V36.6287H64.9687V48.193Z" fill="black"/>
<path d="M80.2497 48.193H79.3241V36.6287H80.2497V48.193Z" fill="black"/>
<path d="M86.2067 46.4902H85.1756L88.9523 36.6287H89.9773L86.2067 46.4902Z" fill="black"/>
<path d="M103.171 48.193H102.246V36.6287H103.171V48.193Z" fill="black"/>
<path d="M118.452 48.193H117.526V36.6287H118.452V48.193Z" fill="black"/>
<path d="M143.753 46.6523H138.056V45.7105H143.753V46.6523Z" fill="black"/>
<path d="M149.014 48.193H148.088V36.6287H149.014V48.193Z" fill="black"/>
<path d="M164.071 36.822L163.941 39.1174H163.084L163.09 36.9218V36.1297H164.071V36.822Z" fill="black"/>
<path d="M174.314 46.6523H168.618V45.7105H174.314V46.6523Z" fill="black"/>
<path d="M181.955 46.6523H176.259V45.7105H181.955V46.6523Z" fill="black"/>
<path d="M185.533 46.4902H184.502L188.278 36.6287H189.303L185.533 46.4902Z" fill="black"/>
<path d="M204.876 46.6523H199.18V45.7105H204.876V46.6523Z" fill="black"/>
<path d="M214.933 36.6287H215.97L219.747 46.4902H218.71L214.933 36.6287Z" fill="black"/>
<path d="M230.214 36.6287H231.251L235.028 46.4902H233.991L230.214 36.6287Z" fill="black"/>
<path d="M246.657 46.4902H245.625L249.402 36.6287H250.427L246.657 46.4902Z" fill="black"/>
<path d="M261.938 46.4902H260.906L264.683 36.6287H265.708L261.938 46.4902Z" fill="black"/>
<path d="M3.84499 63.0965H2.91943V51.5322H3.84499V63.0965Z" fill="black"/>
<path d="M19.1259 63.0965H18.2004V51.5322H19.1259V63.0965Z" fill="black"/>
<path d="M23.9214 51.5322H24.9588L28.7355 61.3937H27.6982L23.9214 51.5322Z" fill="black"/>
<path d="M49.6878 63.0965H48.7622V51.5322H49.6878V63.0965Z" fill="black"/>
<path d="M64.9687 63.0965H64.0432V51.5322H64.9687V63.0965Z" fill="black"/>
<path d="M93.7727 56.4785L93.4435 56.5845L93.7727 56.6968L97.5743 58.1689V59.3914L92.3067 57.0274V56.1167L97.5743 53.759V54.9815L93.7727 56.4785Z" fill="black"/>
<path d="M103.171 63.0965H102.246V51.5322H103.171V63.0965Z" fill="black"/>
<path d="M118.452 63.0965H117.526V51.5322H118.452V63.0965Z" fill="black"/>
<path d="M133.733 63.0965H132.807V51.5322H133.733V63.0965Z" fill="black"/>
<path d="M149.014 63.0965H148.088V51.5322H149.014V63.0965Z" fill="black"/>
<path d="M164.295 63.0965H163.369V51.5322H164.295V63.0965Z" fill="black"/>
<path d="M179.576 63.0965H178.65V51.5322H179.576V63.0965Z" fill="black"/>
<path d="M192.794 56.9276C192.794 56.333 192.84 55.7737 192.931 55.2497C193.026 54.7258 193.153 54.2413 193.31 53.7964C193.467 53.3473 193.647 52.9377 193.85 52.5676C194.057 52.1975 194.273 51.869 194.496 51.5821C194.724 51.2951 194.952 51.0498 195.18 50.846C195.407 50.6423 195.625 50.4822 195.832 50.3657L196.074 51.1267C195.817 51.3222 195.561 51.5883 195.304 51.9251C195.051 52.2619 194.824 52.6715 194.621 53.1539C194.422 53.6321 194.258 54.1852 194.13 54.8131C194.006 55.4368 193.944 56.1375 193.944 56.9151V57.0025C193.944 57.7801 194.006 58.4828 194.13 59.1107C194.258 59.7386 194.422 60.2938 194.621 60.7762C194.824 61.2585 195.051 61.6702 195.304 62.0112C195.561 62.3563 195.817 62.6329 196.074 62.8408L195.832 63.5456C195.625 63.4292 195.405 63.2691 195.173 63.0653C194.946 62.8657 194.718 62.6204 194.49 62.3293C194.267 62.0424 194.051 61.7139 193.844 61.3438C193.641 60.9778 193.461 60.5724 193.304 60.1274C193.151 59.6783 193.026 59.1918 192.931 58.6679C192.84 58.1439 192.794 57.5846 192.794 56.99V56.9276Z" fill="black"/>
<path d="M204.876 61.5558H199.18V60.614H204.876V61.5558Z" fill="black"/>
<path d="M211.132 56.99C211.132 57.5846 211.084 58.1439 210.989 58.6679C210.898 59.1918 210.773 59.6783 210.616 60.1274C210.459 60.5724 210.276 60.9778 210.069 61.3438C209.866 61.7139 209.651 62.0424 209.423 62.3293C209.2 62.6204 208.972 62.8657 208.74 63.0653C208.512 63.2691 208.295 63.4292 208.088 63.5456L207.845 62.8408C208.102 62.6495 208.357 62.3813 208.61 62.0361C208.866 61.6951 209.094 61.2814 209.293 60.7949C209.496 60.3083 209.659 59.749 209.784 59.117C209.912 58.4849 209.976 57.7801 209.976 57.0025V56.9151C209.976 56.1375 209.91 55.4327 209.777 54.8006C209.645 54.1644 209.473 53.603 209.262 53.1165C209.055 52.6258 208.825 52.21 208.572 51.869C208.324 51.528 208.082 51.2619 207.845 51.0706L208.088 50.3657C208.295 50.4822 208.512 50.6423 208.74 50.846C208.972 51.0498 209.2 51.2951 209.423 51.5821C209.651 51.869 209.866 52.1975 210.069 52.5676C210.276 52.9377 210.459 53.3473 210.616 53.7964C210.773 54.2413 210.898 54.7258 210.989 55.2497C211.084 55.7737 211.132 56.333 211.132 56.9276V56.99Z" fill="black"/>
<path d="M222.574 51.5322H223.611L227.388 61.3937H226.35L222.574 51.5322Z" fill="black"/>
<path d="M240.209 58.7552L242.346 51.5322H243.569L240.718 60.614H239.718L236.861 51.5322H238.091L240.209 58.7552Z" fill="black"/>
<path d="M254.297 61.3937H253.266L257.043 51.5322H258.068L254.297 61.3937Z" fill="black"/>
<path d="M1 66.4357H2.03736L5.81412 76.2972H4.77675L1 66.4357Z" fill="black"/>
<path d="M13.8646 76.4593H8.16837V75.5175H13.8646V76.4593Z" fill="black"/>
<path d="M19.1259 78H18.2004V66.4357H19.1259V78Z" fill="black"/>
<path d="M31.5619 66.4357H32.5992L36.376 76.2972H35.3386L31.5619 66.4357Z" fill="black"/>
<path d="M44.4264 76.4593H38.7302V75.5175H44.4264V76.4593Z" fill="black"/>
<path d="M49.6878 78H48.7622V66.4357H49.6878V78Z" fill="black"/>
<path d="M59.7074 76.4593H54.0112V75.5175H59.7074V76.4593Z" fill="black"/>
<path d="M64.9687 78H64.0432V66.4357H64.9687V78Z" fill="black"/>
<path d="M74.9883 76.4593H69.2921V75.5175H74.9883V76.4593Z" fill="black"/>
<path d="M80.2497 78H79.3241V66.4357H80.2497V78Z" fill="black"/>
<path d="M85.0451 66.4357H86.0825L89.8593 76.2972H88.8219L85.0451 66.4357Z" fill="black"/>
<path d="M97.9097 76.4593H92.2135V75.5175H97.9097V76.4593Z" fill="black"/>
<path d="M103.171 78H102.246V66.4357H103.171V78Z" fill="black"/>
<path d="M113.191 76.4593H107.494V75.5175H113.191V76.4593Z" fill="black"/>
<path d="M118.452 78H117.526V66.4357H118.452V78Z" fill="black"/>
<path d="M128.472 76.4593H122.775V75.5175H128.472V76.4593Z" fill="black"/>
<path d="M133.733 78H132.807V66.4357H133.733V78Z" fill="black"/>
<path d="M149.014 78H148.088V66.4357H149.014V78Z" fill="black"/>
<path d="M159.033 76.4593H153.337V75.5175H159.033V76.4593Z" fill="black"/>
<path d="M164.295 78H163.369V66.4357H164.295V78Z" fill="black"/>
<path d="M184.371 66.4357H185.409L189.185 76.2972H188.148L184.371 66.4357Z" fill="black"/>
<path d="M197.236 76.4593H191.54V75.5175H197.236V76.4593Z" fill="black"/>
<path d="M204.876 76.4593H199.18V75.5175H204.876V76.4593Z" fill="black"/>
<path d="M212.517 76.4593H206.821V75.5175H212.517V76.4593Z" fill="black"/>
<path d="M216.095 76.2972H215.064L218.84 66.4357H219.865L216.095 76.2972Z" fill="black"/>
<path d="M230.214 66.4357H231.251L235.028 76.2972H233.991L230.214 66.4357Z" fill="black"/>
<path d="M243.079 76.4593H237.382V75.5175H243.079V76.4593Z" fill="black"/>
<path d="M246.657 76.2972H245.625L249.402 66.4357H250.427L246.657 76.2972Z" fill="black"/>
<path d="M13.8646 1.94186H8.16837V1H13.8646V1.94186Z" stroke="black" mask="url(#path-1-outside-1)"/>
<path d="M44.4264 1.94186H38.7302V1H44.4264V1.94186Z" stroke="black" mask="url(#path-1-outside-1)"/>
<path d="M59.7074 1.94186H54.0112V1H59.7074V1.94186Z" stroke="black" mask="url(#path-1-outside-1)"/>
<path d="M74.9883 1.94186H69.2921V1H74.9883V1.94186Z" stroke="black" mask="url(#path-1-outside-1)"/>
<path d="M113.191 1.94186H107.494V1H113.191V1.94186Z" stroke="black" mask="url(#path-1-outside-1)"/>
<path d="M136.112 1.94186H130.416V1H136.112V1.94186Z" stroke="black" mask="url(#path-1-outside-1)"/>
<path d="M143.753 1.94186H138.056V1H143.753V1.94186Z" stroke="black" mask="url(#path-1-outside-1)"/>
<path d="M3.84499 18.386H2.91943V6.82168H3.84499V18.386Z" stroke="black" mask="url(#path-1-outside-1)"/>
<path d="M16.2809 6.82168H17.3183L21.0951 16.6832H20.0577L16.2809 6.82168Z" stroke="black" mask="url(#path-1-outside-1)"/>
<path d="M34.4069 18.386H33.4813V6.82168H34.4069V18.386Z" stroke="black" mask="url(#path-1-outside-1)"/>
<path d="M47.6255 12.2171C47.6255 11.6225 47.671 11.0632 47.7621 10.5392C47.8574 10.0153 47.9837 9.53084 48.1411 9.08589C48.2984 8.63679 48.4786 8.2272 48.6815 7.8571C48.8885 7.48701 49.1039 7.1585 49.3275 6.87158C49.5553 6.58465 49.783 6.33931 50.0108 6.13555C50.2386 5.93179 50.456 5.7717 50.663 5.65526L50.9053 6.41624C50.6485 6.61168 50.3918 6.87782 50.135 7.21464C49.8824 7.55147 49.6547 7.96106 49.4517 8.44343C49.253 8.92164 49.0894 9.4747 48.961 10.1026C48.8368 10.7264 48.7747 11.427 48.7747 12.2046V12.292C48.7747 13.0696 48.8368 13.7723 48.961 14.4003C49.0894 15.0282 49.253 15.5833 49.4517 16.0657C49.6547 16.548 49.8824 16.9597 50.135 17.3007C50.3918 17.6458 50.6485 17.9224 50.9053 18.1303L50.663 18.8351C50.456 18.7187 50.2365 18.5586 50.0046 18.3548C49.7768 18.1552 49.5491 17.9099 49.3213 17.6188C49.0977 17.3319 48.8823 17.0034 48.6753 16.6333C48.4724 16.2673 48.2922 15.8619 48.1349 15.417C47.9816 14.9679 47.8574 14.4813 47.7621 13.9574C47.671 13.4334 47.6255 12.8741 47.6255 12.2795V12.2171Z" stroke="black" mask="url(#path-1-outside-1)"/>
<path d="M59.7074 16.8454H54.0112V15.9035H59.7074V16.8454Z" stroke="black" mask="url(#path-1-outside-1)"/>
<path d="M64.9687 18.386H64.0432V6.82168H64.9687V18.386Z" stroke="black" mask="url(#path-1-outside-1)"/>
<path d="M80.2497 18.386H79.3241V6.82168H80.2497V18.386Z" stroke="black" mask="url(#path-1-outside-1)"/>
<path d="M101.109 12.2171C101.109 11.6225 101.154 11.0632 101.245 10.5392C101.341 10.0153 101.467 9.53084 101.624 9.08589C101.782 8.63679 101.962 8.2272 102.165 7.8571C102.372 7.48701 102.587 7.1585 102.811 6.87158C103.039 6.58465 103.266 6.33931 103.494 6.13555C103.722 5.93179 103.939 5.7717 104.146 5.65526L104.389 6.41624C104.132 6.61168 103.875 6.87782 103.618 7.21464C103.366 7.55147 103.138 7.96106 102.935 8.44343C102.736 8.92164 102.573 9.4747 102.444 10.1026C102.32 10.7264 102.258 11.427 102.258 12.2046V12.292C102.258 13.0696 102.32 13.7723 102.444 14.4003C102.573 15.0282 102.736 15.5833 102.935 16.0657C103.138 16.548 103.366 16.9597 103.618 17.3007C103.875 17.6458 104.132 17.9224 104.389 18.1303L104.146 18.8351C103.939 18.7187 103.72 18.5586 103.488 18.3548C103.26 18.1552 103.032 17.9099 102.805 17.6188C102.581 17.3319 102.366 17.0034 102.159 16.6333C101.956 16.2673 101.775 15.8619 101.618 15.417C101.465 14.9679 101.341 14.4813 101.245 13.9574C101.154 13.4334 101.109 12.8741 101.109 12.2795V12.2171Z" stroke="black" mask="url(#path-1-outside-1)"/>
<path d="M113.191 16.8454H107.494V15.9035H113.191V16.8454Z" stroke="black" mask="url(#path-1-outside-1)"/>
<path d="M119.446 12.2795C119.446 12.8741 119.398 13.4334 119.303 13.9574C119.212 14.4813 119.088 14.9679 118.93 15.417C118.773 15.8619 118.591 16.2673 118.384 16.6333C118.181 17.0034 117.965 17.3319 117.738 17.6188C117.514 17.9099 117.286 18.1552 117.054 18.3548C116.827 18.5586 116.609 18.7187 116.402 18.8351L116.16 18.1303C116.417 17.939 116.671 17.6708 116.924 17.3256C117.181 16.9847 117.408 16.5709 117.607 16.0844C117.81 15.5979 117.974 15.0386 118.098 14.4065C118.226 13.7744 118.29 13.0696 118.29 12.292V12.2046C118.29 11.427 118.224 10.7222 118.092 10.0901C117.959 9.45391 117.787 8.89253 117.576 8.40601C117.369 7.91532 117.139 7.49949 116.887 7.1585C116.638 6.81752 116.396 6.55139 116.16 6.3601L116.402 5.65526C116.609 5.7717 116.827 5.93179 117.054 6.13555C117.286 6.33931 117.514 6.58465 117.738 6.87158C117.965 7.1585 118.181 7.48701 118.384 7.8571C118.591 8.2272 118.773 8.63679 118.93 9.08589C119.088 9.53084 119.212 10.0153 119.303 10.5392C119.398 11.0632 119.446 11.6225 119.446 12.2171V12.2795Z" stroke="black" mask="url(#path-1-outside-1)"/>
<path d="M124.409 16.6832H123.378L127.155 6.82168H128.18L124.409 16.6832Z" stroke="black" mask="url(#path-1-outside-1)"/>
<path d="M143.753 16.8454H138.056V15.9035H143.753V16.8454Z" stroke="black" mask="url(#path-1-outside-1)"/>
<path d="M149.014 18.386H148.088V6.82168H149.014V18.386Z" stroke="black" mask="url(#path-1-outside-1)"/>
<path d="M3.84499 33.2895H2.91943V21.7252H3.84499V33.2895Z" stroke="black" mask="url(#path-1-outside-1)"/>
<path d="M23.9214 21.7252H24.9588L28.7355 31.5867H27.6982L23.9214 21.7252Z" stroke="black" mask="url(#path-1-outside-1)"/>
<path d="M34.4069 33.2895H33.4813V21.7252H34.4069V33.2895Z" stroke="black" mask="url(#path-1-outside-1)"/>
<path d="M49.6878 33.2895H48.7622V21.7252H49.6878V33.2895Z" stroke="black" mask="url(#path-1-outside-1)"/>
<path d="M59.7074 31.7489H54.0112V30.807H59.7074V31.7489Z" stroke="black" mask="url(#path-1-outside-1)"/>
<path d="M64.9687 33.2895H64.0432V21.7252H64.9687V33.2895Z" stroke="black" mask="url(#path-1-outside-1)"/>
<path d="M80.2497 33.2895H79.3241V21.7252H80.2497V33.2895Z" stroke="black" mask="url(#path-1-outside-1)"/>
<path d="M97.9097 31.7489H92.2135V30.807H97.9097V31.7489Z" stroke="black" mask="url(#path-1-outside-1)"/>
<path d="M105.55 31.7489H99.854V30.807H105.55V31.7489Z" stroke="black" mask="url(#path-1-outside-1)"/>
<path d="M113.191 31.7489H107.494V30.807H113.191V31.7489Z" stroke="black" mask="url(#path-1-outside-1)"/>
<path d="M118.452 33.2895H117.526V21.7252H118.452V33.2895Z" stroke="black" mask="url(#path-1-outside-1)"/>
<path d="M133.733 33.2895H132.807V21.7252H133.733V33.2895Z" stroke="black" mask="url(#path-1-outside-1)"/>
<path d="M143.753 31.7489H138.056V30.807H143.753V31.7489Z" stroke="black" mask="url(#path-1-outside-1)"/>
<path d="M159.033 31.7489H153.337V30.807H159.033V31.7489Z" stroke="black" mask="url(#path-1-outside-1)"/>
<path d="M174.314 31.7489H168.618V30.807H174.314V31.7489Z" stroke="black" mask="url(#path-1-outside-1)"/>
<path d="M181.955 31.7489H176.259V30.807H181.955V31.7489Z" stroke="black" mask="url(#path-1-outside-1)"/>
<path d="M197.236 31.7489H191.54V30.807H197.236V31.7489Z" stroke="black" mask="url(#path-1-outside-1)"/>
<path d="M204.876 31.7489H199.18V30.807H204.876V31.7489Z" stroke="black" mask="url(#path-1-outside-1)"/>
<path d="M212.517 31.7489H206.821V30.807H212.517V31.7489Z" stroke="black" mask="url(#path-1-outside-1)"/>
<path d="M220.157 31.7489H214.461V30.807H220.157V31.7489Z" stroke="black" mask="url(#path-1-outside-1)"/>
<path d="M227.798 31.7489H222.101V30.807H227.798V31.7489Z" stroke="black" mask="url(#path-1-outside-1)"/>
<path d="M258.36 31.7489H252.663V30.807H258.36V31.7489Z" stroke="black" mask="url(#path-1-outside-1)"/>
<path d="M266 31.7489H260.304V30.807H266V31.7489Z" stroke="black" mask="url(#path-1-outside-1)"/>
<path d="M3.84499 48.193H2.91943V36.6287H3.84499V48.193Z" stroke="black" mask="url(#path-1-outside-1)"/>
<path d="M17.9271 44.962C17.9271 44.8372 17.9457 44.7208 17.983 44.6127C18.0244 44.5046 18.0823 44.411 18.1569 44.332C18.2314 44.2488 18.3246 44.1844 18.4364 44.1386C18.5482 44.0929 18.6787 44.07 18.8278 44.07C18.9768 44.07 19.1073 44.0929 19.2191 44.1386C19.3351 44.1844 19.4303 44.2488 19.5048 44.332C19.5835 44.411 19.6415 44.5046 19.6788 44.6127C19.7202 44.7208 19.7409 44.8372 19.7409 44.962C19.7409 45.0826 19.7202 45.1969 19.6788 45.305C19.6415 45.409 19.5835 45.5005 19.5048 45.5795C19.4303 45.6585 19.3351 45.7188 19.2191 45.7604C19.1073 45.8061 18.9768 45.829 18.8278 45.829C18.6787 45.829 18.5482 45.8061 18.4364 45.7604C18.3246 45.7188 18.2314 45.6585 18.1569 45.5795C18.0823 45.5005 18.0244 45.409 17.983 45.305C17.9457 45.1969 17.9271 45.0826 17.9271 44.962Z" stroke="black" mask="url(#path-1-outside-1)"/>
<path d="M35.1771 38.1319H34.2453L32.7048 36.4727H34.0901L35.1771 38.1319Z" stroke="black" mask="url(#path-1-outside-1)"/>
<path d="M49.6878 48.193H48.7622V36.6287H49.6878V48.193Z" stroke="black" mask="url(#path-1-outside-1)"/>
<path d="M64.9687 48.193H64.0432V36.6287H64.9687V48.193Z" stroke="black" mask="url(#path-1-outside-1)"/>
<path d="M80.2497 48.193H79.3241V36.6287H80.2497V48.193Z" stroke="black" mask="url(#path-1-outside-1)"/>
<path d="M86.2067 46.4902H85.1756L88.9523 36.6287H89.9773L86.2067 46.4902Z" stroke="black" mask="url(#path-1-outside-1)"/>
<path d="M103.171 48.193H102.246V36.6287H103.171V48.193Z" stroke="black" mask="url(#path-1-outside-1)"/>
<path d="M118.452 48.193H117.526V36.6287H118.452V48.193Z" stroke="black" mask="url(#path-1-outside-1)"/>
<path d="M143.753 46.6523H138.056V45.7105H143.753V46.6523Z" stroke="black" mask="url(#path-1-outside-1)"/>
<path d="M149.014 48.193H148.088V36.6287H149.014V48.193Z" stroke="black" mask="url(#path-1-outside-1)"/>
<path d="M164.071 36.822L163.941 39.1174H163.084L163.09 36.9218V36.1297H164.071V36.822Z" stroke="black" mask="url(#path-1-outside-1)"/>
<path d="M174.314 46.6523H168.618V45.7105H174.314V46.6523Z" stroke="black" mask="url(#path-1-outside-1)"/>
<path d="M181.955 46.6523H176.259V45.7105H181.955V46.6523Z" stroke="black" mask="url(#path-1-outside-1)"/>
<path d="M185.533 46.4902H184.502L188.278 36.6287H189.303L185.533 46.4902Z" stroke="black" mask="url(#path-1-outside-1)"/>
<path d="M204.876 46.6523H199.18V45.7105H204.876V46.6523Z" stroke="black" mask="url(#path-1-outside-1)"/>
<path d="M214.933 36.6287H215.97L219.747 46.4902H218.71L214.933 36.6287Z" stroke="black" mask="url(#path-1-outside-1)"/>
<path d="M230.214 36.6287H231.251L235.028 46.4902H233.991L230.214 36.6287Z" stroke="black" mask="url(#path-1-outside-1)"/>
<path d="M246.657 46.4902H245.625L249.402 36.6287H250.427L246.657 46.4902Z" stroke="black" mask="url(#path-1-outside-1)"/>
<path d="M261.938 46.4902H260.906L264.683 36.6287H265.708L261.938 46.4902Z" stroke="black" mask="url(#path-1-outside-1)"/>
<path d="M3.84499 63.0965H2.91943V51.5322H3.84499V63.0965Z" stroke="black" mask="url(#path-1-outside-1)"/>
<path d="M19.1259 63.0965H18.2004V51.5322H19.1259V63.0965Z" stroke="black" mask="url(#path-1-outside-1)"/>
<path d="M23.9214 51.5322H24.9588L28.7355 61.3937H27.6982L23.9214 51.5322Z" stroke="black" mask="url(#path-1-outside-1)"/>
<path d="M49.6878 63.0965H48.7622V51.5322H49.6878V63.0965Z" stroke="black" mask="url(#path-1-outside-1)"/>
<path d="M64.9687 63.0965H64.0432V51.5322H64.9687V63.0965Z" stroke="black" mask="url(#path-1-outside-1)"/>
<path d="M93.7727 56.4785L93.4435 56.5845L93.7727 56.6968L97.5743 58.1689V59.3914L92.3067 57.0274V56.1167L97.5743 53.759V54.9815L93.7727 56.4785Z" stroke="black" mask="url(#path-1-outside-1)"/>
<path d="M103.171 63.0965H102.246V51.5322H103.171V63.0965Z" stroke="black" mask="url(#path-1-outside-1)"/>
<path d="M118.452 63.0965H117.526V51.5322H118.452V63.0965Z" stroke="black" mask="url(#path-1-outside-1)"/>
<path d="M133.733 63.0965H132.807V51.5322H133.733V63.0965Z" stroke="black" mask="url(#path-1-outside-1)"/>
<path d="M149.014 63.0965H148.088V51.5322H149.014V63.0965Z" stroke="black" mask="url(#path-1-outside-1)"/>
<path d="M164.295 63.0965H163.369V51.5322H164.295V63.0965Z" stroke="black" mask="url(#path-1-outside-1)"/>
<path d="M179.576 63.0965H178.65V51.5322H179.576V63.0965Z" stroke="black" mask="url(#path-1-outside-1)"/>
<path d="M192.794 56.9276C192.794 56.333 192.84 55.7737 192.931 55.2497C193.026 54.7258 193.153 54.2413 193.31 53.7964C193.467 53.3473 193.647 52.9377 193.85 52.5676C194.057 52.1975 194.273 51.869 194.496 51.5821C194.724 51.2951 194.952 51.0498 195.18 50.846C195.407 50.6423 195.625 50.4822 195.832 50.3657L196.074 51.1267C195.817 51.3222 195.561 51.5883 195.304 51.9251C195.051 52.2619 194.824 52.6715 194.621 53.1539C194.422 53.6321 194.258 54.1852 194.13 54.8131C194.006 55.4368 193.944 56.1375 193.944 56.9151V57.0025C193.944 57.7801 194.006 58.4828 194.13 59.1107C194.258 59.7386 194.422 60.2938 194.621 60.7762C194.824 61.2585 195.051 61.6702 195.304 62.0112C195.561 62.3563 195.817 62.6329 196.074 62.8408L195.832 63.5456C195.625 63.4292 195.405 63.2691 195.173 63.0653C194.946 62.8657 194.718 62.6204 194.49 62.3293C194.267 62.0424 194.051 61.7139 193.844 61.3438C193.641 60.9778 193.461 60.5724 193.304 60.1274C193.151 59.6783 193.026 59.1918 192.931 58.6679C192.84 58.1439 192.794 57.5846 192.794 56.99V56.9276Z" stroke="black" mask="url(#path-1-outside-1)"/>
<path d="M204.876 61.5558H199.18V60.614H204.876V61.5558Z" stroke="black" mask="url(#path-1-outside-1)"/>
<path d="M211.132 56.99C211.132 57.5846 211.084 58.1439 210.989 58.6679C210.898 59.1918 210.773 59.6783 210.616 60.1274C210.459 60.5724 210.276 60.9778 210.069 61.3438C209.866 61.7139 209.651 62.0424 209.423 62.3293C209.2 62.6204 208.972 62.8657 208.74 63.0653C208.512 63.2691 208.295 63.4292 208.088 63.5456L207.845 62.8408C208.102 62.6495 208.357 62.3813 208.61 62.0361C208.866 61.6951 209.094 61.2814 209.293 60.7949C209.496 60.3083 209.659 59.749 209.784 59.117C209.912 58.4849 209.976 57.7801 209.976 57.0025V56.9151C209.976 56.1375 209.91 55.4327 209.777 54.8006C209.645 54.1644 209.473 53.603 209.262 53.1165C209.055 52.6258 208.825 52.21 208.572 51.869C208.324 51.528 208.082 51.2619 207.845 51.0706L208.088 50.3657C208.295 50.4822 208.512 50.6423 208.74 50.846C208.972 51.0498 209.2 51.2951 209.423 51.5821C209.651 51.869 209.866 52.1975 210.069 52.5676C210.276 52.9377 210.459 53.3473 210.616 53.7964C210.773 54.2413 210.898 54.7258 210.989 55.2497C211.084 55.7737 211.132 56.333 211.132 56.9276V56.99Z" stroke="black" mask="url(#path-1-outside-1)"/>
<path d="M222.574 51.5322H223.611L227.388 61.3937H226.35L222.574 51.5322Z" stroke="black" mask="url(#path-1-outside-1)"/>
<path d="M240.209 58.7552L242.346 51.5322H243.569L240.718 60.614H239.718L236.861 51.5322H238.091L240.209 58.7552Z" stroke="black" mask="url(#path-1-outside-1)"/>
<path d="M254.297 61.3937H253.266L257.043 51.5322H258.068L254.297 61.3937Z" stroke="black" mask="url(#path-1-outside-1)"/>
<path d="M1 66.4357H2.03736L5.81412 76.2972H4.77675L1 66.4357Z" stroke="black" mask="url(#path-1-outside-1)"/>
<path d="M13.8646 76.4593H8.16837V75.5175H13.8646V76.4593Z" stroke="black" mask="url(#path-1-outside-1)"/>
<path d="M19.1259 78H18.2004V66.4357H19.1259V78Z" stroke="black" mask="url(#path-1-outside-1)"/>
<path d="M31.5619 66.4357H32.5992L36.376 76.2972H35.3386L31.5619 66.4357Z" stroke="black" mask="url(#path-1-outside-1)"/>
<path d="M44.4264 76.4593H38.7302V75.5175H44.4264V76.4593Z" stroke="black" mask="url(#path-1-outside-1)"/>
<path d="M49.6878 78H48.7622V66.4357H49.6878V78Z" stroke="black" mask="url(#path-1-outside-1)"/>
<path d="M59.7074 76.4593H54.0112V75.5175H59.7074V76.4593Z" stroke="black" mask="url(#path-1-outside-1)"/>
<path d="M64.9687 78H64.0432V66.4357H64.9687V78Z" stroke="black" mask="url(#path-1-outside-1)"/>
<path d="M74.9883 76.4593H69.2921V75.5175H74.9883V76.4593Z" stroke="black" mask="url(#path-1-outside-1)"/>
<path d="M80.2497 78H79.3241V66.4357H80.2497V78Z" stroke="black" mask="url(#path-1-outside-1)"/>
<path d="M85.0451 66.4357H86.0825L89.8593 76.2972H88.8219L85.0451 66.4357Z" stroke="black" mask="url(#path-1-outside-1)"/>
<path d="M97.9097 76.4593H92.2135V75.5175H97.9097V76.4593Z" stroke="black" mask="url(#path-1-outside-1)"/>
<path d="M103.171 78H102.246V66.4357H103.171V78Z" stroke="black" mask="url(#path-1-outside-1)"/>
<path d="M113.191 76.4593H107.494V75.5175H113.191V76.4593Z" stroke="black" mask="url(#path-1-outside-1)"/>
<path d="M118.452 78H117.526V66.4357H118.452V78Z" stroke="black" mask="url(#path-1-outside-1)"/>
<path d="M128.472 76.4593H122.775V75.5175H128.472V76.4593Z" stroke="black" mask="url(#path-1-outside-1)"/>
<path d="M133.733 78H132.807V66.4357H133.733V78Z" stroke="black" mask="url(#path-1-outside-1)"/>
<path d="M149.014 78H148.088V66.4357H149.014V78Z" stroke="black" mask="url(#path-1-outside-1)"/>
<path d="M159.033 76.4593H153.337V75.5175H159.033V76.4593Z" stroke="black" mask="url(#path-1-outside-1)"/>
<path d="M164.295 78H163.369V66.4357H164.295V78Z" stroke="black" mask="url(#path-1-outside-1)"/>
<path d="M184.371 66.4357H185.409L189.185 76.2972H188.148L184.371 66.4357Z" stroke="black" mask="url(#path-1-outside-1)"/>
<path d="M197.236 76.4593H191.54V75.5175H197.236V76.4593Z" stroke="black" mask="url(#path-1-outside-1)"/>
<path d="M204.876 76.4593H199.18V75.5175H204.876V76.4593Z" stroke="black" mask="url(#path-1-outside-1)"/>
<path d="M212.517 76.4593H206.821V75.5175H212.517V76.4593Z" stroke="black" mask="url(#path-1-outside-1)"/>
<path d="M216.095 76.2972H215.064L218.84 66.4357H219.865L216.095 76.2972Z" stroke="black" mask="url(#path-1-outside-1)"/>
<path d="M230.214 66.4357H231.251L235.028 76.2972H233.991L230.214 66.4357Z" stroke="black" mask="url(#path-1-outside-1)"/>
<path d="M243.079 76.4593H237.382V75.5175H243.079V76.4593Z" stroke="black" mask="url(#path-1-outside-1)"/>
<path d="M246.657 76.2972H245.625L249.402 66.4357H250.427L246.657 76.2972Z" stroke="black" mask="url(#path-1-outside-1)"/>
<mask id="path-2-outside-2" maskUnits="userSpaceOnUse" x="0" y="82" width="156" height="60" fill="black">
<rect fill="white" y="82" width="156" height="60"/>
<path d="M16.4777 83.7055H12.1781V83H16.4777V83.7055Z"/>
<path d="M22.2449 83.7055H17.9453V83H22.2449V83.7055Z"/>
<path d="M28.0121 83.7055H23.7125V83H28.0121V83.7055Z"/>
<path d="M114.52 83.7055H110.221V83H114.52V83.7055Z"/>
<path d="M7.64402 94.7469H6.86568L9.71646 87.3605H10.4901L7.64402 94.7469Z"/>
<path d="M22.2449 94.8684H17.9453V94.1629H22.2449V94.8684Z"/>
<path d="M29.8361 87.3605H30.6191L33.4699 94.7469H32.6869L29.8361 87.3605Z"/>
<path d="M106.957 96.0224H106.259V87.3605H106.957V96.0224Z"/>
<path d="M118.492 96.0224H117.793V87.3605H118.492V96.0224Z"/>
<path d="M1.8768 105.91H1.09847L3.94925 98.5235H4.7229L1.8768 105.91Z"/>
<path d="M13.4112 105.91H12.6329L15.4837 98.5235H16.2573L13.4112 105.91Z"/>
<path d="M22.2449 106.031H17.9453V105.326H22.2449V106.031Z"/>
<path d="M24.0689 98.5235H24.8519L27.7027 105.91H26.9196L24.0689 98.5235Z"/>
<path d="M35.6033 98.5235H36.3863L39.2371 105.91H38.4541L35.6033 98.5235Z"/>
<path d="M45.3138 106.031H41.0142V105.326H45.3138V106.031Z"/>
<path d="M56.8482 106.031H52.5486V105.326H56.8482V106.031Z"/>
<path d="M62.6154 106.031H58.3158V105.326H62.6154V106.031Z"/>
<path d="M85.6843 106.031H81.3847V105.326H85.6843V106.031Z"/>
<path d="M91.4515 106.031H87.1519V105.326H91.4515V106.031Z"/>
<path d="M102.986 106.031H98.6863V105.326H102.986V106.031Z"/>
<path d="M106.957 107.185H106.259V98.5235H106.957V107.185Z"/>
<path d="M118.492 107.185H117.793V98.5235H118.492V107.185Z"/>
<path d="M126.055 106.031H121.755V105.326H126.055V106.031Z"/>
<path d="M137.589 106.031H133.29V105.326H137.589V106.031Z"/>
<path d="M143.356 106.031H139.057V105.326H143.356V106.031Z"/>
<path d="M149.124 106.031H144.824V105.326H149.124V106.031Z"/>
<path d="M3.14746 118.348H2.44884V109.686H3.14746V118.348Z"/>
<path d="M22.2449 117.194H17.9453V116.489H22.2449V117.194Z"/>
<path d="M37.7508 118.348H37.0521V109.686H37.7508V118.348Z"/>
<path d="M49.1164 109.831L49.0179 111.551H48.3709L48.3756 109.906V109.313H49.1164V109.831Z"/>
<path d="M56.8482 117.194H52.5486V116.489H56.8482V117.194Z"/>
<path d="M64.4394 109.686H65.2224L68.0732 117.073H67.2902L64.4394 109.686Z"/>
<path d="M76.8506 117.073H76.0723L78.923 109.686H79.6967L76.8506 117.073Z"/>
<path d="M91.4515 117.194H87.1519V116.489H91.4515V117.194Z"/>
<path d="M96.0043 110.812H95.301L94.1382 109.57H95.1838L96.0043 110.812Z"/>
<path d="M106.957 118.348H106.259V109.686H106.957V118.348Z"/>
<path d="M120.288 117.194H115.988V116.489H120.288V117.194Z"/>
<path d="M126.055 117.194H121.755V116.489H126.055V117.194Z"/>
<path d="M128.756 117.073H127.977L130.828 109.686H131.602L128.756 117.073Z"/>
<path d="M143.356 117.194H139.057V116.489H143.356V117.194Z"/>
<path d="M150.948 109.686H151.731L154.581 117.073H153.798L150.948 109.686Z"/>
<path d="M3.14746 129.511H2.44884V120.849H3.14746V129.511Z"/>
<path d="M14.6819 129.511H13.9833V120.849H14.6819V129.511Z"/>
<path d="M26.2163 129.511H25.5177V120.849H26.2163V129.511Z"/>
<path d="M37.7508 129.511H37.0521V120.849H37.7508V129.511Z"/>
<path d="M49.2852 129.511H48.5866V120.849H49.2852V129.511Z"/>
<path d="M60.8196 129.511H60.121V120.849H60.8196V129.511Z"/>
<path d="M72.354 129.511H71.6554V120.849H72.354V129.511Z"/>
<path d="M82.3318 124.891C82.3318 124.445 82.3662 124.026 82.435 123.634C82.5069 123.241 82.6022 122.879 82.721 122.545C82.8398 122.209 82.9757 121.902 83.1289 121.625C83.2852 121.348 83.4477 121.102 83.6165 120.887C83.7885 120.672 83.9604 120.488 84.1323 120.335C84.3042 120.183 84.4683 120.063 84.6246 119.976L84.8075 120.546C84.6137 120.692 84.4199 120.891 84.2261 121.144C84.0354 121.396 83.8635 121.703 83.7103 122.064C83.5603 122.422 83.4368 122.836 83.3399 123.307C83.2461 123.774 83.1992 124.299 83.1992 124.881V124.947C83.1992 125.529 83.2461 126.055 83.3399 126.526C83.4368 126.996 83.5603 127.412 83.7103 127.773C83.8635 128.135 84.0354 128.443 84.2261 128.698C84.4199 128.957 84.6137 129.164 84.8075 129.32L84.6246 129.848C84.4683 129.76 84.3027 129.64 84.1276 129.488C83.9557 129.338 83.7838 129.155 83.6119 128.937C83.4431 128.722 83.2805 128.476 83.1242 128.198C82.971 127.924 82.8351 127.621 82.7163 127.287C82.6006 126.951 82.5069 126.587 82.435 126.194C82.3662 125.802 82.3318 125.383 82.3318 124.937V124.891Z"/>
<path d="M91.4515 128.357H87.1519V127.652H91.4515V128.357Z"/>
<path d="M95.4229 129.511H94.7243V120.849H95.4229V129.511Z"/>
<path d="M106.957 129.511H106.259V120.849H106.957V129.511Z"/>
<path d="M118.492 129.511H117.793V120.849H118.492V129.511Z"/>
<path d="M124.259 129.511H123.56V120.849H124.259V129.511Z"/>
<path d="M134.237 124.891C134.237 124.445 134.271 124.026 134.34 123.634C134.412 123.241 134.507 122.879 134.626 122.545C134.745 122.209 134.881 121.902 135.034 121.625C135.19 121.348 135.353 121.102 135.521 120.887C135.693 120.672 135.865 120.488 136.037 120.335C136.209 120.183 136.373 120.063 136.53 119.976L136.712 120.546C136.519 120.692 136.325 120.891 136.131 121.144C135.94 121.396 135.768 121.703 135.615 122.064C135.465 122.422 135.342 122.836 135.245 123.307C135.151 123.774 135.104 124.299 135.104 124.881V124.947C135.104 125.529 135.151 126.055 135.245 126.526C135.342 126.996 135.465 127.412 135.615 127.773C135.768 128.135 135.94 128.443 136.131 128.698C136.325 128.957 136.519 129.164 136.712 129.32L136.53 129.848C136.373 129.76 136.208 129.64 136.033 129.488C135.861 129.338 135.689 129.155 135.517 128.937C135.348 128.722 135.185 128.476 135.029 128.198C134.876 127.924 134.74 127.621 134.621 127.287C134.506 126.951 134.412 126.587 134.34 126.194C134.271 125.802 134.237 125.383 134.237 124.937V124.891Z"/>
<path d="M143.356 128.357H139.057V127.652H143.356V128.357Z"/>
<path d="M148.078 124.937C148.078 125.383 148.042 125.802 147.97 126.194C147.901 126.587 147.808 126.951 147.689 127.287C147.57 127.621 147.433 127.924 147.276 128.198C147.123 128.476 146.961 128.722 146.789 128.937C146.62 129.155 146.448 129.338 146.273 129.488C146.101 129.64 145.937 129.76 145.781 129.848L145.598 129.32C145.791 129.176 145.984 128.975 146.174 128.717C146.368 128.462 146.54 128.152 146.69 127.787C146.843 127.423 146.967 127.004 147.061 126.53C147.158 126.057 147.206 125.529 147.206 124.947V124.881C147.206 124.299 147.156 123.771 147.056 123.297C146.956 122.821 146.826 122.4 146.667 122.036C146.51 121.668 146.337 121.357 146.146 121.102C145.959 120.846 145.776 120.647 145.598 120.504L145.781 119.976C145.937 120.063 146.101 120.183 146.273 120.335C146.448 120.488 146.62 120.672 146.789 120.887C146.961 121.102 147.123 121.348 147.276 121.625C147.433 121.902 147.57 122.209 147.689 122.545C147.808 122.879 147.901 123.241 147.97 123.634C148.042 124.026 148.078 124.445 148.078 124.891V124.937Z"/>
<path d="M1 132.012H1.78303L4.63381 139.399H3.85078L1 132.012Z"/>
<path d="M10.7105 139.52H6.41086V138.815H10.7105V139.52Z"/>
<path d="M14.6819 140.674H13.9833V132.012H14.6819V140.674Z"/>
<path d="M26.2163 140.674H25.5177V132.012H26.2163V140.674Z"/>
<path d="M33.7794 139.52H29.4797V138.815H33.7794V139.52Z"/>
<path d="M37.7508 140.674H37.0521V132.012H37.7508V140.674Z"/>
<path d="M45.3138 139.52H41.0142V138.815H45.3138V139.52Z"/>
<path d="M49.2852 140.674H48.5866V132.012H49.2852V140.674Z"/>
<path d="M60.8196 140.674H60.121V132.012H60.8196V140.674Z"/>
<path d="M68.3827 139.52H64.083V138.815H68.3827V139.52Z"/>
<path d="M72.354 140.674H71.6554V132.012H72.354V140.674Z"/>
<path d="M75.9738 132.012H76.7568L79.6076 139.399H78.8246L75.9738 132.012Z"/>
<path d="M85.6843 139.52H81.3847V138.815H85.6843V139.52Z"/>
<path d="M91.4515 139.52H87.1519V138.815H91.4515V139.52Z"/>
<path d="M95.2072 138.614C95.2072 138.76 95.1885 138.913 95.151 139.072C95.1166 139.234 95.0634 139.392 94.9915 139.548C94.9228 139.707 94.8384 139.858 94.7383 140.001C94.6383 140.145 94.5227 140.272 94.3914 140.384L93.8522 140.09C94.0022 139.872 94.1085 139.64 94.171 139.394C94.2335 139.148 94.2648 138.893 94.2648 138.628V137.792H95.2072V138.614Z"/>
<path d="M102.986 139.52H98.6863V138.815H102.986V139.52Z"/>
<path d="M106.957 140.674H106.259V132.012H106.957V140.674Z"/>
<path d="M110.577 132.012H111.36L114.211 139.399H113.428L110.577 132.012Z"/>
<path d="M120.288 139.52H115.988V138.815H120.288V139.52Z"/>
<path d="M126.055 139.52H121.755V138.815H126.055V139.52Z"/>
<path d="M127.879 132.012H128.662L131.513 139.399H130.73L127.879 132.012Z"/>
<path d="M137.589 139.52H133.29V138.815H137.589V139.52Z"/>
<path d="M143.356 139.52H139.057V138.815H143.356V139.52Z"/>
<path d="M149.124 139.52H144.824V138.815H149.124V139.52Z"/>
<path d="M151.824 139.399H151.046L153.897 132.012H154.671L151.824 139.399Z"/>
</mask>
<path d="M16.4777 83.7055H12.1781V83H16.4777V83.7055Z" fill="black"/>
<path d="M22.2449 83.7055H17.9453V83H22.2449V83.7055Z" fill="black"/>
<path d="M28.0121 83.7055H23.7125V83H28.0121V83.7055Z" fill="black"/>
<path d="M114.52 83.7055H110.221V83H114.52V83.7055Z" fill="black"/>
<path d="M7.64402 94.7469H6.86568L9.71646 87.3605H10.4901L7.64402 94.7469Z" fill="black"/>
<path d="M22.2449 94.8684H17.9453V94.1629H22.2449V94.8684Z" fill="black"/>
<path d="M29.8361 87.3605H30.6191L33.4699 94.7469H32.6869L29.8361 87.3605Z" fill="black"/>
<path d="M106.957 96.0224H106.259V87.3605H106.957V96.0224Z" fill="black"/>
<path d="M118.492 96.0224H117.793V87.3605H118.492V96.0224Z" fill="black"/>
<path d="M1.8768 105.91H1.09847L3.94925 98.5235H4.7229L1.8768 105.91Z" fill="black"/>
<path d="M13.4112 105.91H12.6329L15.4837 98.5235H16.2573L13.4112 105.91Z" fill="black"/>
<path d="M22.2449 106.031H17.9453V105.326H22.2449V106.031Z" fill="black"/>
<path d="M24.0689 98.5235H24.8519L27.7027 105.91H26.9196L24.0689 98.5235Z" fill="black"/>
<path d="M35.6033 98.5235H36.3863L39.2371 105.91H38.4541L35.6033 98.5235Z" fill="black"/>
<path d="M45.3138 106.031H41.0142V105.326H45.3138V106.031Z" fill="black"/>
<path d="M56.8482 106.031H52.5486V105.326H56.8482V106.031Z" fill="black"/>
<path d="M62.6154 106.031H58.3158V105.326H62.6154V106.031Z" fill="black"/>
<path d="M85.6843 106.031H81.3847V105.326H85.6843V106.031Z" fill="black"/>
<path d="M91.4515 106.031H87.1519V105.326H91.4515V106.031Z" fill="black"/>
<path d="M102.986 106.031H98.6863V105.326H102.986V106.031Z" fill="black"/>
<path d="M106.957 107.185H106.259V98.5235H106.957V107.185Z" fill="black"/>
<path d="M118.492 107.185H117.793V98.5235H118.492V107.185Z" fill="black"/>
<path d="M126.055 106.031H121.755V105.326H126.055V106.031Z" fill="black"/>
<path d="M137.589 106.031H133.29V105.326H137.589V106.031Z" fill="black"/>
<path d="M143.356 106.031H139.057V105.326H143.356V106.031Z" fill="black"/>
<path d="M149.124 106.031H144.824V105.326H149.124V106.031Z" fill="black"/>
<path d="M3.14746 118.348H2.44884V109.686H3.14746V118.348Z" fill="black"/>
<path d="M22.2449 117.194H17.9453V116.489H22.2449V117.194Z" fill="black"/>
<path d="M37.7508 118.348H37.0521V109.686H37.7508V118.348Z" fill="black"/>
<path d="M49.1164 109.831L49.0179 111.551H48.3709L48.3756 109.906V109.313H49.1164V109.831Z" fill="black"/>
<path d="M56.8482 117.194H52.5486V116.489H56.8482V117.194Z" fill="black"/>
<path d="M64.4394 109.686H65.2224L68.0732 117.073H67.2902L64.4394 109.686Z" fill="black"/>
<path d="M76.8506 117.073H76.0723L78.923 109.686H79.6967L76.8506 117.073Z" fill="black"/>
<path d="M91.4515 117.194H87.1519V116.489H91.4515V117.194Z" fill="black"/>
<path d="M96.0043 110.812H95.301L94.1382 109.57H95.1838L96.0043 110.812Z" fill="black"/>
<path d="M106.957 118.348H106.259V109.686H106.957V118.348Z" fill="black"/>
<path d="M120.288 117.194H115.988V116.489H120.288V117.194Z" fill="black"/>
<path d="M126.055 117.194H121.755V116.489H126.055V117.194Z" fill="black"/>
<path d="M128.756 117.073H127.977L130.828 109.686H131.602L128.756 117.073Z" fill="black"/>
<path d="M143.356 117.194H139.057V116.489H143.356V117.194Z" fill="black"/>
<path d="M150.948 109.686H151.731L154.581 117.073H153.798L150.948 109.686Z" fill="black"/>
<path d="M3.14746 129.511H2.44884V120.849H3.14746V129.511Z" fill="black"/>
<path d="M14.6819 129.511H13.9833V120.849H14.6819V129.511Z" fill="black"/>
<path d="M26.2163 129.511H25.5177V120.849H26.2163V129.511Z" fill="black"/>
<path d="M37.7508 129.511H37.0521V120.849H37.7508V129.511Z" fill="black"/>
<path d="M49.2852 129.511H48.5866V120.849H49.2852V129.511Z" fill="black"/>
<path d="M60.8196 129.511H60.121V120.849H60.8196V129.511Z" fill="black"/>
<path d="M72.354 129.511H71.6554V120.849H72.354V129.511Z" fill="black"/>
<path d="M82.3318 124.891C82.3318 124.445 82.3662 124.026 82.435 123.634C82.5069 123.241 82.6022 122.879 82.721 122.545C82.8398 122.209 82.9757 121.902 83.1289 121.625C83.2852 121.348 83.4477 121.102 83.6165 120.887C83.7885 120.672 83.9604 120.488 84.1323 120.335C84.3042 120.183 84.4683 120.063 84.6246 119.976L84.8075 120.546C84.6137 120.692 84.4199 120.891 84.2261 121.144C84.0354 121.396 83.8635 121.703 83.7103 122.064C83.5603 122.422 83.4368 122.836 83.3399 123.307C83.2461 123.774 83.1992 124.299 83.1992 124.881V124.947C83.1992 125.529 83.2461 126.055 83.3399 126.526C83.4368 126.996 83.5603 127.412 83.7103 127.773C83.8635 128.135 84.0354 128.443 84.2261 128.698C84.4199 128.957 84.6137 129.164 84.8075 129.32L84.6246 129.848C84.4683 129.76 84.3027 129.64 84.1276 129.488C83.9557 129.338 83.7838 129.155 83.6119 128.937C83.4431 128.722 83.2805 128.476 83.1242 128.198C82.971 127.924 82.8351 127.621 82.7163 127.287C82.6006 126.951 82.5069 126.587 82.435 126.194C82.3662 125.802 82.3318 125.383 82.3318 124.937V124.891Z" fill="black"/>
<path d="M91.4515 128.357H87.1519V127.652H91.4515V128.357Z" fill="black"/>
<path d="M95.4229 129.511H94.7243V120.849H95.4229V129.511Z" fill="black"/>
<path d="M106.957 129.511H106.259V120.849H106.957V129.511Z" fill="black"/>
<path d="M118.492 129.511H117.793V120.849H118.492V129.511Z" fill="black"/>
<path d="M124.259 129.511H123.56V120.849H124.259V129.511Z" fill="black"/>
<path d="M134.237 124.891C134.237 124.445 134.271 124.026 134.34 123.634C134.412 123.241 134.507 122.879 134.626 122.545C134.745 122.209 134.881 121.902 135.034 121.625C135.19 121.348 135.353 121.102 135.521 120.887C135.693 120.672 135.865 120.488 136.037 120.335C136.209 120.183 136.373 120.063 136.53 119.976L136.712 120.546C136.519 120.692 136.325 120.891 136.131 121.144C135.94 121.396 135.768 121.703 135.615 122.064C135.465 122.422 135.342 122.836 135.245 123.307C135.151 123.774 135.104 124.299 135.104 124.881V124.947C135.104 125.529 135.151 126.055 135.245 126.526C135.342 126.996 135.465 127.412 135.615 127.773C135.768 128.135 135.94 128.443 136.131 128.698C136.325 128.957 136.519 129.164 136.712 129.32L136.53 129.848C136.373 129.76 136.208 129.64 136.033 129.488C135.861 129.338 135.689 129.155 135.517 128.937C135.348 128.722 135.185 128.476 135.029 128.198C134.876 127.924 134.74 127.621 134.621 127.287C134.506 126.951 134.412 126.587 134.34 126.194C134.271 125.802 134.237 125.383 134.237 124.937V124.891Z" fill="black"/>
<path d="M143.356 128.357H139.057V127.652H143.356V128.357Z" fill="black"/>
<path d="M148.078 124.937C148.078 125.383 148.042 125.802 147.97 126.194C147.901 126.587 147.808 126.951 147.689 127.287C147.57 127.621 147.433 127.924 147.276 128.198C147.123 128.476 146.961 128.722 146.789 128.937C146.62 129.155 146.448 129.338 146.273 129.488C146.101 129.64 145.937 129.76 145.781 129.848L145.598 129.32C145.791 129.176 145.984 128.975 146.174 128.717C146.368 128.462 146.54 128.152 146.69 127.787C146.843 127.423 146.967 127.004 147.061 126.53C147.158 126.057 147.206 125.529 147.206 124.947V124.881C147.206 124.299 147.156 123.771 147.056 123.297C146.956 122.821 146.826 122.4 146.667 122.036C146.51 121.668 146.337 121.357 146.146 121.102C145.959 120.846 145.776 120.647 145.598 120.504L145.781 119.976C145.937 120.063 146.101 120.183 146.273 120.335C146.448 120.488 146.62 120.672 146.789 120.887C146.961 121.102 147.123 121.348 147.276 121.625C147.433 121.902 147.57 122.209 147.689 122.545C147.808 122.879 147.901 123.241 147.97 123.634C148.042 124.026 148.078 124.445 148.078 124.891V124.937Z" fill="black"/>
<path d="M1 132.012H1.78303L4.63381 139.399H3.85078L1 132.012Z" fill="black"/>
<path d="M10.7105 139.52H6.41086V138.815H10.7105V139.52Z" fill="black"/>
<path d="M14.6819 140.674H13.9833V132.012H14.6819V140.674Z" fill="black"/>
<path d="M26.2163 140.674H25.5177V132.012H26.2163V140.674Z" fill="black"/>
<path d="M33.7794 139.52H29.4797V138.815H33.7794V139.52Z" fill="black"/>
<path d="M37.7508 140.674H37.0521V132.012H37.7508V140.674Z" fill="black"/>
<path d="M45.3138 139.52H41.0142V138.815H45.3138V139.52Z" fill="black"/>
<path d="M49.2852 140.674H48.5866V132.012H49.2852V140.674Z" fill="black"/>
<path d="M60.8196 140.674H60.121V132.012H60.8196V140.674Z" fill="black"/>
<path d="M68.3827 139.52H64.083V138.815H68.3827V139.52Z" fill="black"/>
<path d="M72.354 140.674H71.6554V132.012H72.354V140.674Z" fill="black"/>
<path d="M75.9738 132.012H76.7568L79.6076 139.399H78.8246L75.9738 132.012Z" fill="black"/>
<path d="M85.6843 139.52H81.3847V138.815H85.6843V139.52Z" fill="black"/>
<path d="M91.4515 139.52H87.1519V138.815H91.4515V139.52Z" fill="black"/>
<path d="M95.2072 138.614C95.2072 138.76 95.1885 138.913 95.151 139.072C95.1166 139.234 95.0634 139.392 94.9915 139.548C94.9228 139.707 94.8384 139.858 94.7383 140.001C94.6383 140.145 94.5227 140.272 94.3914 140.384L93.8522 140.09C94.0022 139.872 94.1085 139.64 94.171 139.394C94.2335 139.148 94.2648 138.893 94.2648 138.628V137.792H95.2072V138.614Z" fill="black"/>
<path d="M102.986 139.52H98.6863V138.815H102.986V139.52Z" fill="black"/>
<path d="M106.957 140.674H106.259V132.012H106.957V140.674Z" fill="black"/>
<path d="M110.577 132.012H111.36L114.211 139.399H113.428L110.577 132.012Z" fill="black"/>
<path d="M120.288 139.52H115.988V138.815H120.288V139.52Z" fill="black"/>
<path d="M126.055 139.52H121.755V138.815H126.055V139.52Z" fill="black"/>
<path d="M127.879 132.012H128.662L131.513 139.399H130.73L127.879 132.012Z" fill="black"/>
<path d="M137.589 139.52H133.29V138.815H137.589V139.52Z" fill="black"/>
<path d="M143.356 139.52H139.057V138.815H143.356V139.52Z" fill="black"/>
<path d="M149.124 139.52H144.824V138.815H149.124V139.52Z" fill="black"/>
<path d="M151.824 139.399H151.046L153.897 132.012H154.671L151.824 139.399Z" fill="black"/>
<path d="M16.4777 83.7055H12.1781V83H16.4777V83.7055Z" stroke="black" mask="url(#path-2-outside-2)"/>
<path d="M22.2449 83.7055H17.9453V83H22.2449V83.7055Z" stroke="black" mask="url(#path-2-outside-2)"/>
<path d="M28.0121 83.7055H23.7125V83H28.0121V83.7055Z" stroke="black" mask="url(#path-2-outside-2)"/>
<path d="M114.52 83.7055H110.221V83H114.52V83.7055Z" stroke="black" mask="url(#path-2-outside-2)"/>
<path d="M7.64402 94.7469H6.86568L9.71646 87.3605H10.4901L7.64402 94.7469Z" stroke="black" mask="url(#path-2-outside-2)"/>
<path d="M22.2449 94.8684H17.9453V94.1629H22.2449V94.8684Z" stroke="black" mask="url(#path-2-outside-2)"/>
<path d="M29.8361 87.3605H30.6191L33.4699 94.7469H32.6869L29.8361 87.3605Z" stroke="black" mask="url(#path-2-outside-2)"/>
<path d="M106.957 96.0224H106.259V87.3605H106.957V96.0224Z" stroke="black" mask="url(#path-2-outside-2)"/>
<path d="M118.492 96.0224H117.793V87.3605H118.492V96.0224Z" stroke="black" mask="url(#path-2-outside-2)"/>
<path d="M1.8768 105.91H1.09847L3.94925 98.5235H4.7229L1.8768 105.91Z" stroke="black" mask="url(#path-2-outside-2)"/>
<path d="M13.4112 105.91H12.6329L15.4837 98.5235H16.2573L13.4112 105.91Z" stroke="black" mask="url(#path-2-outside-2)"/>
<path d="M22.2449 106.031H17.9453V105.326H22.2449V106.031Z" stroke="black" mask="url(#path-2-outside-2)"/>
<path d="M24.0689 98.5235H24.8519L27.7027 105.91H26.9196L24.0689 98.5235Z" stroke="black" mask="url(#path-2-outside-2)"/>
<path d="M35.6033 98.5235H36.3863L39.2371 105.91H38.4541L35.6033 98.5235Z" stroke="black" mask="url(#path-2-outside-2)"/>
<path d="M45.3138 106.031H41.0142V105.326H45.3138V106.031Z" stroke="black" mask="url(#path-2-outside-2)"/>
<path d="M56.8482 106.031H52.5486V105.326H56.8482V106.031Z" stroke="black" mask="url(#path-2-outside-2)"/>
<path d="M62.6154 106.031H58.3158V105.326H62.6154V106.031Z" stroke="black" mask="url(#path-2-outside-2)"/>
<path d="M85.6843 106.031H81.3847V105.326H85.6843V106.031Z" stroke="black" mask="url(#path-2-outside-2)"/>
<path d="M91.4515 106.031H87.1519V105.326H91.4515V106.031Z" stroke="black" mask="url(#path-2-outside-2)"/>
<path d="M102.986 106.031H98.6863V105.326H102.986V106.031Z" stroke="black" mask="url(#path-2-outside-2)"/>
<path d="M106.957 107.185H106.259V98.5235H106.957V107.185Z" stroke="black" mask="url(#path-2-outside-2)"/>
<path d="M118.492 107.185H117.793V98.5235H118.492V107.185Z" stroke="black" mask="url(#path-2-outside-2)"/>
<path d="M126.055 106.031H121.755V105.326H126.055V106.031Z" stroke="black" mask="url(#path-2-outside-2)"/>
<path d="M137.589 106.031H133.29V105.326H137.589V106.031Z" stroke="black" mask="url(#path-2-outside-2)"/>
<path d="M143.356 106.031H139.057V105.326H143.356V106.031Z" stroke="black" mask="url(#path-2-outside-2)"/>
<path d="M149.124 106.031H144.824V105.326H149.124V106.031Z" stroke="black" mask="url(#path-2-outside-2)"/>
<path d="M3.14746 118.348H2.44884V109.686H3.14746V118.348Z" stroke="black" mask="url(#path-2-outside-2)"/>
<path d="M22.2449 117.194H17.9453V116.489H22.2449V117.194Z" stroke="black" mask="url(#path-2-outside-2)"/>
<path d="M37.7508 118.348H37.0521V109.686H37.7508V118.348Z" stroke="black" mask="url(#path-2-outside-2)"/>
<path d="M49.1164 109.831L49.0179 111.551H48.3709L48.3756 109.906V109.313H49.1164V109.831Z" stroke="black" mask="url(#path-2-outside-2)"/>
<path d="M56.8482 117.194H52.5486V116.489H56.8482V117.194Z" stroke="black" mask="url(#path-2-outside-2)"/>
<path d="M64.4394 109.686H65.2224L68.0732 117.073H67.2902L64.4394 109.686Z" stroke="black" mask="url(#path-2-outside-2)"/>
<path d="M76.8506 117.073H76.0723L78.923 109.686H79.6967L76.8506 117.073Z" stroke="black" mask="url(#path-2-outside-2)"/>
<path d="M91.4515 117.194H87.1519V116.489H91.4515V117.194Z" stroke="black" mask="url(#path-2-outside-2)"/>
<path d="M96.0043 110.812H95.301L94.1382 109.57H95.1838L96.0043 110.812Z" stroke="black" mask="url(#path-2-outside-2)"/>
<path d="M106.957 118.348H106.259V109.686H106.957V118.348Z" stroke="black" mask="url(#path-2-outside-2)"/>
<path d="M120.288 117.194H115.988V116.489H120.288V117.194Z" stroke="black" mask="url(#path-2-outside-2)"/>
<path d="M126.055 117.194H121.755V116.489H126.055V117.194Z" stroke="black" mask="url(#path-2-outside-2)"/>
<path d="M128.756 117.073H127.977L130.828 109.686H131.602L128.756 117.073Z" stroke="black" mask="url(#path-2-outside-2)"/>
<path d="M143.356 117.194H139.057V116.489H143.356V117.194Z" stroke="black" mask="url(#path-2-outside-2)"/>
<path d="M150.948 109.686H151.731L154.581 117.073H153.798L150.948 109.686Z" stroke="black" mask="url(#path-2-outside-2)"/>
<path d="M3.14746 129.511H2.44884V120.849H3.14746V129.511Z" stroke="black" mask="url(#path-2-outside-2)"/>
<path d="M14.6819 129.511H13.9833V120.849H14.6819V129.511Z" stroke="black" mask="url(#path-2-outside-2)"/>
<path d="M26.2163 129.511H25.5177V120.849H26.2163V129.511Z" stroke="black" mask="url(#path-2-outside-2)"/>
<path d="M37.7508 129.511H37.0521V120.849H37.7508V129.511Z" stroke="black" mask="url(#path-2-outside-2)"/>
<path d="M49.2852 129.511H48.5866V120.849H49.2852V129.511Z" stroke="black" mask="url(#path-2-outside-2)"/>
<path d="M60.8196 129.511H60.121V120.849H60.8196V129.511Z" stroke="black" mask="url(#path-2-outside-2)"/>
<path d="M72.354 129.511H71.6554V120.849H72.354V129.511Z" stroke="black" mask="url(#path-2-outside-2)"/>
<path d="M82.3318 124.891C82.3318 124.445 82.3662 124.026 82.435 123.634C82.5069 123.241 82.6022 122.879 82.721 122.545C82.8398 122.209 82.9757 121.902 83.1289 121.625C83.2852 121.348 83.4477 121.102 83.6165 120.887C83.7885 120.672 83.9604 120.488 84.1323 120.335C84.3042 120.183 84.4683 120.063 84.6246 119.976L84.8075 120.546C84.6137 120.692 84.4199 120.891 84.2261 121.144C84.0354 121.396 83.8635 121.703 83.7103 122.064C83.5603 122.422 83.4368 122.836 83.3399 123.307C83.2461 123.774 83.1992 124.299 83.1992 124.881V124.947C83.1992 125.529 83.2461 126.055 83.3399 126.526C83.4368 126.996 83.5603 127.412 83.7103 127.773C83.8635 128.135 84.0354 128.443 84.2261 128.698C84.4199 128.957 84.6137 129.164 84.8075 129.32L84.6246 129.848C84.4683 129.76 84.3027 129.64 84.1276 129.488C83.9557 129.338 83.7838 129.155 83.6119 128.937C83.4431 128.722 83.2805 128.476 83.1242 128.198C82.971 127.924 82.8351 127.621 82.7163 127.287C82.6006 126.951 82.5069 126.587 82.435 126.194C82.3662 125.802 82.3318 125.383 82.3318 124.937V124.891Z" stroke="black" mask="url(#path-2-outside-2)"/>
<path d="M91.4515 128.357H87.1519V127.652H91.4515V128.357Z" stroke="black" mask="url(#path-2-outside-2)"/>
<path d="M95.4229 129.511H94.7243V120.849H95.4229V129.511Z" stroke="black" mask="url(#path-2-outside-2)"/>
<path d="M106.957 129.511H106.259V120.849H106.957V129.511Z" stroke="black" mask="url(#path-2-outside-2)"/>
<path d="M118.492 129.511H117.793V120.849H118.492V129.511Z" stroke="black" mask="url(#path-2-outside-2)"/>
<path d="M124.259 129.511H123.56V120.849H124.259V129.511Z" stroke="black" mask="url(#path-2-outside-2)"/>
<path d="M134.237 124.891C134.237 124.445 134.271 124.026 134.34 123.634C134.412 123.241 134.507 122.879 134.626 122.545C134.745 122.209 134.881 121.902 135.034 121.625C135.19 121.348 135.353 121.102 135.521 120.887C135.693 120.672 135.865 120.488 136.037 120.335C136.209 120.183 136.373 120.063 136.53 119.976L136.712 120.546C136.519 120.692 136.325 120.891 136.131 121.144C135.94 121.396 135.768 121.703 135.615 122.064C135.465 122.422 135.342 122.836 135.245 123.307C135.151 123.774 135.104 124.299 135.104 124.881V124.947C135.104 125.529 135.151 126.055 135.245 126.526C135.342 126.996 135.465 127.412 135.615 127.773C135.768 128.135 135.94 128.443 136.131 128.698C136.325 128.957 136.519 129.164 136.712 129.32L136.53 129.848C136.373 129.76 136.208 129.64 136.033 129.488C135.861 129.338 135.689 129.155 135.517 128.937C135.348 128.722 135.185 128.476 135.029 128.198C134.876 127.924 134.74 127.621 134.621 127.287C134.506 126.951 134.412 126.587 134.34 126.194C134.271 125.802 134.237 125.383 134.237 124.937V124.891Z" stroke="black" mask="url(#path-2-outside-2)"/>
<path d="M143.356 128.357H139.057V127.652H143.356V128.357Z" stroke="black" mask="url(#path-2-outside-2)"/>
<path d="M148.078 124.937C148.078 125.383 148.042 125.802 147.97 126.194C147.901 126.587 147.808 126.951 147.689 127.287C147.57 127.621 147.433 127.924 147.276 128.198C147.123 128.476 146.961 128.722 146.789 128.937C146.62 129.155 146.448 129.338 146.273 129.488C146.101 129.64 145.937 129.76 145.781 129.848L145.598 129.32C145.791 129.176 145.984 128.975 146.174 128.717C146.368 128.462 146.54 128.152 146.69 127.787C146.843 127.423 146.967 127.004 147.061 126.53C147.158 126.057 147.206 125.529 147.206 124.947V124.881C147.206 124.299 147.156 123.771 147.056 123.297C146.956 122.821 146.826 122.4 146.667 122.036C146.51 121.668 146.337 121.357 146.146 121.102C145.959 120.846 145.776 120.647 145.598 120.504L145.781 119.976C145.937 120.063 146.101 120.183 146.273 120.335C146.448 120.488 146.62 120.672 146.789 120.887C146.961 121.102 147.123 121.348 147.276 121.625C147.433 121.902 147.57 122.209 147.689 122.545C147.808 122.879 147.901 123.241 147.97 123.634C148.042 124.026 148.078 124.445 148.078 124.891V124.937Z" stroke="black" mask="url(#path-2-outside-2)"/>
<path d="M1 132.012H1.78303L4.63381 139.399H3.85078L1 132.012Z" stroke="black" mask="url(#path-2-outside-2)"/>
<path d="M10.7105 139.52H6.41086V138.815H10.7105V139.52Z" stroke="black" mask="url(#path-2-outside-2)"/>
<path d="M14.6819 140.674H13.9833V132.012H14.6819V140.674Z" stroke="black" mask="url(#path-2-outside-2)"/>
<path d="M26.2163 140.674H25.5177V132.012H26.2163V140.674Z" stroke="black" mask="url(#path-2-outside-2)"/>
<path d="M33.7794 139.52H29.4797V138.815H33.7794V139.52Z" stroke="black" mask="url(#path-2-outside-2)"/>
<path d="M37.7508 140.674H37.0521V132.012H37.7508V140.674Z" stroke="black" mask="url(#path-2-outside-2)"/>
<path d="M45.3138 139.52H41.0142V138.815H45.3138V139.52Z" stroke="black" mask="url(#path-2-outside-2)"/>
<path d="M49.2852 140.674H48.5866V132.012H49.2852V140.674Z" stroke="black" mask="url(#path-2-outside-2)"/>
<path d="M60.8196 140.674H60.121V132.012H60.8196V140.674Z" stroke="black" mask="url(#path-2-outside-2)"/>
<path d="M68.3827 139.52H64.083V138.815H68.3827V139.52Z" stroke="black" mask="url(#path-2-outside-2)"/>
<path d="M72.354 140.674H71.6554V132.012H72.354V140.674Z" stroke="black" mask="url(#path-2-outside-2)"/>
<path d="M75.9738 132.012H76.7568L79.6076 139.399H78.8246L75.9738 132.012Z" stroke="black" mask="url(#path-2-outside-2)"/>
<path d="M85.6843 139.52H81.3847V138.815H85.6843V139.52Z" stroke="black" mask="url(#path-2-outside-2)"/>
<path d="M91.4515 139.52H87.1519V138.815H91.4515V139.52Z" stroke="black" mask="url(#path-2-outside-2)"/>
<path d="M95.2072 138.614C95.2072 138.76 95.1885 138.913 95.151 139.072C95.1166 139.234 95.0634 139.392 94.9915 139.548C94.9228 139.707 94.8384 139.858 94.7383 140.001C94.6383 140.145 94.5227 140.272 94.3914 140.384L93.8522 140.09C94.0022 139.872 94.1085 139.64 94.171 139.394C94.2335 139.148 94.2648 138.893 94.2648 138.628V137.792H95.2072V138.614Z" stroke="black" mask="url(#path-2-outside-2)"/>
<path d="M102.986 139.52H98.6863V138.815H102.986V139.52Z" stroke="black" mask="url(#path-2-outside-2)"/>
<path d="M106.957 140.674H106.259V132.012H106.957V140.674Z" stroke="black" mask="url(#path-2-outside-2)"/>
<path d="M110.577 132.012H111.36L114.211 139.399H113.428L110.577 132.012Z" stroke="black" mask="url(#path-2-outside-2)"/>
<path d="M120.288 139.52H115.988V138.815H120.288V139.52Z" stroke="black" mask="url(#path-2-outside-2)"/>
<path d="M126.055 139.52H121.755V138.815H126.055V139.52Z" stroke="black" mask="url(#path-2-outside-2)"/>
<path d="M127.879 132.012H128.662L131.513 139.399H130.73L127.879 132.012Z" stroke="black" mask="url(#path-2-outside-2)"/>
<path d="M137.589 139.52H133.29V138.815H137.589V139.52Z" stroke="black" mask="url(#path-2-outside-2)"/>
<path d="M143.356 139.52H139.057V138.815H143.356V139.52Z" stroke="black" mask="url(#path-2-outside-2)"/>
<path d="M149.124 139.52H144.824V138.815H149.124V139.52Z" stroke="black" mask="url(#path-2-outside-2)"/>
<path d="M151.824 139.399H151.046L153.897 132.012H154.671L151.824 139.399Z" stroke="black" mask="url(#path-2-outside-2)"/>
<mask id="path-3-outside-3" maskUnits="userSpaceOnUse" x="159.164" y="82" width="49" height="82" fill="black">
<rect fill="white" x="159.164" y="82" width="49" height="82"/>
<path d="M168.425 83.7055H164.126V83H168.425V83.7055Z"/>
<path d="M160.862 96.0224H160.164V87.3605H160.862V96.0224Z"/>
<path d="M172.397 96.0224H171.698V87.3605H172.397V96.0224Z"/>
<path d="M160.862 107.185H160.164V98.5235H160.862V107.185Z"/>
<path d="M172.397 107.185H171.698V98.5235H172.397V107.185Z"/>
<path d="M179.96 106.031H175.66V105.326H179.96V106.031Z"/>
<path d="M203.029 106.031H198.729V105.326H203.029V106.031Z"/>
<path d="M160.862 118.348H160.164V109.686H160.862V118.348Z"/>
<path d="M172.397 118.348H171.698V109.686H172.397V118.348Z"/>
<path d="M183.931 118.348H183.232V109.686H183.931V118.348Z"/>
<path d="M195.465 118.348H194.767V109.686H195.465V118.348Z"/>
<path d="M207 118.348H206.301V109.686H207V118.348Z"/>
<path d="M160.862 129.511H160.164V120.849H160.862V129.511Z"/>
<path d="M172.397 129.511H171.698V120.849H172.397V129.511Z"/>
<path d="M183.931 129.511H183.232V120.849H183.931V129.511Z"/>
<path d="M191.494 128.357H187.194V127.652H191.494V128.357Z"/>
<path d="M195.465 129.511H194.767V120.849H195.465V129.511Z"/>
<path d="M207 129.511H206.301V120.849H207V129.511Z"/>
<path d="M160.862 140.674H160.164V132.012H160.862V140.674Z"/>
<path d="M168.425 139.52H164.126V138.815H168.425V139.52Z"/>
<path d="M172.397 140.674H171.698V132.012H172.397V140.674Z"/>
<path d="M176.016 132.012H176.799L179.65 139.399H178.867L176.016 132.012Z"/>
<path d="M185.727 139.52H181.427V138.815H185.727V139.52Z"/>
<path d="M191.494 139.52H187.194V138.815H191.494V139.52Z"/>
<path d="M195.25 138.614C195.25 138.76 195.231 138.913 195.194 139.072C195.159 139.234 195.106 139.392 195.034 139.548C194.965 139.707 194.881 139.858 194.781 140.001C194.681 140.145 194.565 140.272 194.434 140.384L193.895 140.09C194.045 139.872 194.151 139.64 194.214 139.394C194.276 139.148 194.307 138.893 194.307 138.628V137.792H195.25V138.614Z"/>
<path d="M207 140.674H206.301V132.012H207V140.674Z"/>
<path d="M185.727 150.683H181.427V149.978H185.727V150.683Z"/>
<path d="M191.494 150.683H187.194V149.978H191.494V150.683Z"/>
<path d="M194.195 150.562H193.417L196.267 143.175H197.041L194.195 150.562Z"/>
<path d="M207 151.837H206.301V143.175H207V151.837Z"/>
<path d="M178.164 163H177.465V154.338H178.164V163Z"/>
<path d="M185.727 161.846H181.427V161.141H185.727V161.846Z"/>
<path d="M191.494 161.846H187.194V161.141H191.494V161.846Z"/>
<path d="M197.261 161.846H192.962V161.141H197.261V161.846Z"/>
<path d="M199.962 161.725H199.184L202.035 154.338H202.808L199.962 161.725Z"/>
</mask>
<path d="M168.425 83.7055H164.126V83H168.425V83.7055Z" fill="black"/>
<path d="M160.862 96.0224H160.164V87.3605H160.862V96.0224Z" fill="black"/>
<path d="M172.397 96.0224H171.698V87.3605H172.397V96.0224Z" fill="black"/>
<path d="M160.862 107.185H160.164V98.5235H160.862V107.185Z" fill="black"/>
<path d="M172.397 107.185H171.698V98.5235H172.397V107.185Z" fill="black"/>
<path d="M179.96 106.031H175.66V105.326H179.96V106.031Z" fill="black"/>
<path d="M203.029 106.031H198.729V105.326H203.029V106.031Z" fill="black"/>
<path d="M160.862 118.348H160.164V109.686H160.862V118.348Z" fill="black"/>
<path d="M172.397 118.348H171.698V109.686H172.397V118.348Z" fill="black"/>
<path d="M183.931 118.348H183.232V109.686H183.931V118.348Z" fill="black"/>
<path d="M195.465 118.348H194.767V109.686H195.465V118.348Z" fill="black"/>
<path d="M207 118.348H206.301V109.686H207V118.348Z" fill="black"/>
<path d="M160.862 129.511H160.164V120.849H160.862V129.511Z" fill="black"/>
<path d="M172.397 129.511H171.698V120.849H172.397V129.511Z" fill="black"/>
<path d="M183.931 129.511H183.232V120.849H183.931V129.511Z" fill="black"/>
<path d="M191.494 128.357H187.194V127.652H191.494V128.357Z" fill="black"/>
<path d="M195.465 129.511H194.767V120.849H195.465V129.511Z" fill="black"/>
<path d="M207 129.511H206.301V120.849H207V129.511Z" fill="black"/>
<path d="M160.862 140.674H160.164V132.012H160.862V140.674Z" fill="black"/>
<path d="M168.425 139.52H164.126V138.815H168.425V139.52Z" fill="black"/>
<path d="M172.397 140.674H171.698V132.012H172.397V140.674Z" fill="black"/>
<path d="M176.016 132.012H176.799L179.65 139.399H178.867L176.016 132.012Z" fill="black"/>
<path d="M185.727 139.52H181.427V138.815H185.727V139.52Z" fill="black"/>
<path d="M191.494 139.52H187.194V138.815H191.494V139.52Z" fill="black"/>
<path d="M195.25 138.614C195.25 138.76 195.231 138.913 195.194 139.072C195.159 139.234 195.106 139.392 195.034 139.548C194.965 139.707 194.881 139.858 194.781 140.001C194.681 140.145 194.565 140.272 194.434 140.384L193.895 140.09C194.045 139.872 194.151 139.64 194.214 139.394C194.276 139.148 194.307 138.893 194.307 138.628V137.792H195.25V138.614Z" fill="black"/>
<path d="M207 140.674H206.301V132.012H207V140.674Z" fill="black"/>
<path d="M185.727 150.683H181.427V149.978H185.727V150.683Z" fill="black"/>
<path d="M191.494 150.683H187.194V149.978H191.494V150.683Z" fill="black"/>
<path d="M194.195 150.562H193.417L196.267 143.175H197.041L194.195 150.562Z" fill="black"/>
<path d="M207 151.837H206.301V143.175H207V151.837Z" fill="black"/>
<path d="M178.164 163H177.465V154.338H178.164V163Z" fill="black"/>
<path d="M185.727 161.846H181.427V161.141H185.727V161.846Z" fill="black"/>
<path d="M191.494 161.846H187.194V161.141H191.494V161.846Z" fill="black"/>
<path d="M197.261 161.846H192.962V161.141H197.261V161.846Z" fill="black"/>
<path d="M199.962 161.725H199.184L202.035 154.338H202.808L199.962 161.725Z" fill="black"/>
<path d="M168.425 83.7055H164.126V83H168.425V83.7055Z" stroke="black" mask="url(#path-3-outside-3)"/>
<path d="M160.862 96.0224H160.164V87.3605H160.862V96.0224Z" stroke="black" mask="url(#path-3-outside-3)"/>
<path d="M172.397 96.0224H171.698V87.3605H172.397V96.0224Z" stroke="black" mask="url(#path-3-outside-3)"/>
<path d="M160.862 107.185H160.164V98.5235H160.862V107.185Z" stroke="black" mask="url(#path-3-outside-3)"/>
<path d="M172.397 107.185H171.698V98.5235H172.397V107.185Z" stroke="black" mask="url(#path-3-outside-3)"/>
<path d="M179.96 106.031H175.66V105.326H179.96V106.031Z" stroke="black" mask="url(#path-3-outside-3)"/>
<path d="M203.029 106.031H198.729V105.326H203.029V106.031Z" stroke="black" mask="url(#path-3-outside-3)"/>
<path d="M160.862 118.348H160.164V109.686H160.862V118.348Z" stroke="black" mask="url(#path-3-outside-3)"/>
<path d="M172.397 118.348H171.698V109.686H172.397V118.348Z" stroke="black" mask="url(#path-3-outside-3)"/>
<path d="M183.931 118.348H183.232V109.686H183.931V118.348Z" stroke="black" mask="url(#path-3-outside-3)"/>
<path d="M195.465 118.348H194.767V109.686H195.465V118.348Z" stroke="black" mask="url(#path-3-outside-3)"/>
<path d="M207 118.348H206.301V109.686H207V118.348Z" stroke="black" mask="url(#path-3-outside-3)"/>
<path d="M160.862 129.511H160.164V120.849H160.862V129.511Z" stroke="black" mask="url(#path-3-outside-3)"/>
<path d="M172.397 129.511H171.698V120.849H172.397V129.511Z" stroke="black" mask="url(#path-3-outside-3)"/>
<path d="M183.931 129.511H183.232V120.849H183.931V129.511Z" stroke="black" mask="url(#path-3-outside-3)"/>
<path d="M191.494 128.357H187.194V127.652H191.494V128.357Z" stroke="black" mask="url(#path-3-outside-3)"/>
<path d="M195.465 129.511H194.767V120.849H195.465V129.511Z" stroke="black" mask="url(#path-3-outside-3)"/>
<path d="M207 129.511H206.301V120.849H207V129.511Z" stroke="black" mask="url(#path-3-outside-3)"/>
<path d="M160.862 140.674H160.164V132.012H160.862V140.674Z" stroke="black" mask="url(#path-3-outside-3)"/>
<path d="M168.425 139.52H164.126V138.815H168.425V139.52Z" stroke="black" mask="url(#path-3-outside-3)"/>
<path d="M172.397 140.674H171.698V132.012H172.397V140.674Z" stroke="black" mask="url(#path-3-outside-3)"/>
<path d="M176.016 132.012H176.799L179.65 139.399H178.867L176.016 132.012Z" stroke="black" mask="url(#path-3-outside-3)"/>
<path d="M185.727 139.52H181.427V138.815H185.727V139.52Z" stroke="black" mask="url(#path-3-outside-3)"/>
<path d="M191.494 139.52H187.194V138.815H191.494V139.52Z" stroke="black" mask="url(#path-3-outside-3)"/>
<path d="M195.25 138.614C195.25 138.76 195.231 138.913 195.194 139.072C195.159 139.234 195.106 139.392 195.034 139.548C194.965 139.707 194.881 139.858 194.781 140.001C194.681 140.145 194.565 140.272 194.434 140.384L193.895 140.09C194.045 139.872 194.151 139.64 194.214 139.394C194.276 139.148 194.307 138.893 194.307 138.628V137.792H195.25V138.614Z" stroke="black" mask="url(#path-3-outside-3)"/>
<path d="M207 140.674H206.301V132.012H207V140.674Z" stroke="black" mask="url(#path-3-outside-3)"/>
<path d="M185.727 150.683H181.427V149.978H185.727V150.683Z" stroke="black" mask="url(#path-3-outside-3)"/>
<path d="M191.494 150.683H187.194V149.978H191.494V150.683Z" stroke="black" mask="url(#path-3-outside-3)"/>
<path d="M194.195 150.562H193.417L196.267 143.175H197.041L194.195 150.562Z" stroke="black" mask="url(#path-3-outside-3)"/>
<path d="M207 151.837H206.301V143.175H207V151.837Z" stroke="black" mask="url(#path-3-outside-3)"/>
<path d="M178.164 163H177.465V154.338H178.164V163Z" stroke="black" mask="url(#path-3-outside-3)"/>
<path d="M185.727 161.846H181.427V161.141H185.727V161.846Z" stroke="black" mask="url(#path-3-outside-3)"/>
<path d="M191.494 161.846H187.194V161.141H191.494V161.846Z" stroke="black" mask="url(#path-3-outside-3)"/>
<path d="M197.261 161.846H192.962V161.141H197.261V161.846Z" stroke="black" mask="url(#path-3-outside-3)"/>
<path d="M199.962 161.725H199.184L202.035 154.338H202.808L199.962 161.725Z" stroke="black" mask="url(#path-3-outside-3)"/>
</svg>
